<?xml version="1.0" encoding="UTF-8" standalone="no"?>
<!DOCTYPE svg PUBLIC "-//W3C//DTD SVG 1.1//EN" "http://www.w3.org/Graphics/SVG/1.1/DTD/svg11.dtd">
<svg width="100%" height="100%" viewBox="0 0 80 80" version="1.1" xmlns="http://www.w3.org/2000/svg" xmlns:xlink="http://www.w3.org/1999/xlink" xml:space="preserve" xmlns:serif="http://www.serif.com/" style="fill-rule:evenodd;clip-rule:evenodd;stroke-linejoin:round;stroke-miterlimit:2;">
    <rect id="Artboard1" x="0" y="0" width="80" height="80" style="fill:none;"/>
    <clipPath id="_clip1">
        <rect id="Artboard11" serif:id="Artboard1" x="0" y="0" width="80" height="80"/>
    </clipPath>
    <g clip-path="url(#_clip1)">
        <g transform="matrix(1.11022e-16,1,-1,1.11022e-16,80,5.9952e-14)">
            <path d="M68.29,11.71C52.676,-3.903 27.324,-3.903 11.71,11.71C-3.903,27.324 -3.903,52.676 11.71,68.29C27.324,83.903 52.676,83.903 68.29,68.29C83.903,52.676 83.903,27.324 68.29,11.71ZM66.638,13.362C81.34,28.064 81.34,51.936 66.638,66.638C51.936,81.34 28.064,81.34 13.362,66.638C-1.34,51.936 -1.34,28.064 13.362,13.362C28.064,-1.34 51.936,-1.34 66.638,13.362ZM40.697,54.862L38.739,52.921L50.284,41.393L25.835,41.393L25.835,38.607L50.284,38.607L38.739,27.079L40.697,25.138L55.558,40L40.697,54.862Z"/>
        </g>
    </g>
</svg>
