<svg width="22" height="16" viewBox="0 0 22 16" fill="none" xmlns="http://www.w3.org/2000/svg">
<path d="M18.4007 1.33997C16.9994 0.70497 15.5201 0.254475 14.0005 0C13.7925 0.367934 13.6044 0.746489 13.4368 1.13408C11.8181 0.892656 10.172 0.892656 8.55337 1.13408C8.38571 0.746529 8.19756 0.367978 7.9897 0C6.46912 0.256624 4.98879 0.708188 3.58606 1.3433C0.80128 5.42134 0.0463701 9.39809 0.423825 13.3184C2.05466 14.511 3.88003 15.418 5.82059 16C6.25755 15.4183 6.6442 14.8012 6.97644 14.1553C6.34539 13.922 5.73632 13.6342 5.15627 13.2951C5.30893 13.1856 5.45824 13.0726 5.60251 12.9631C7.29031 13.7487 9.13247 14.156 10.9976 14.156C12.8627 14.156 14.7049 13.7487 16.3927 12.9631C16.5386 13.0809 16.6879 13.1939 16.8389 13.2951C16.2578 13.6347 15.6476 13.9231 15.0154 14.1569C15.3472 14.8026 15.7339 15.4192 16.1712 16C18.1135 15.4204 19.9402 14.5138 21.5714 13.32C22.0142 8.77377 20.8148 4.83354 18.4007 1.33997ZM7.45455 10.9074C6.40271 10.9074 5.53373 9.96264 5.53373 8.80033C5.53373 7.63802 6.37252 6.68493 7.4512 6.68493C8.52988 6.68493 9.39215 7.63802 9.3737 8.80033C9.35525 9.96264 8.52652 10.9074 7.45455 10.9074ZM14.5406 10.9074C13.4871 10.9074 12.6215 9.96264 12.6215 8.80033C12.6215 7.63802 13.4603 6.68493 14.5406 6.68493C15.621 6.68493 16.4766 7.63802 16.4581 8.80033C16.4397 9.96264 15.6126 10.9074 14.5406 10.9074Z" fill="#9AA4E6"/>
</svg>
