<svg width="18" height="18" viewBox="0 0 18 18" fill="none" xmlns="http://www.w3.org/2000/svg">
<path fill-rule="evenodd" clip-rule="evenodd" d="M18 18H14.3017V11.7007C14.3017 9.97373 13.6454 9.00865 12.2784 9.00865C10.7913 9.00865 10.0142 10.0128 10.0142 11.7007V18H6.44988V5.99988H10.0142V7.61642C10.0142 7.61642 11.0859 5.63331 13.6326 5.63331C16.1778 5.63331 18 7.18754 18 10.4023V18ZM2.19773 4.42869C0.98377 4.42869 0 3.43731 0 2.21435C0 0.991384 0.98377 0 2.19773 0C3.41204 0 4.39512 0.991384 4.39512 2.21435C4.39512 3.43731 3.41204 4.42869 2.19773 4.42869ZM0.357577 18H4.07388V5.99988H0.357577V18Z" fill="#9AA4E6"/>
</svg>
