<svg width="285" height="266" viewBox="0 0 285 266" fill="none" xmlns="http://www.w3.org/2000/svg">
<g clip-path="url(#clip0_386_1252)">
<path d="M263.455 203.498L276.24 205.492C280.568 200.263 283.552 194.059 284.931 187.418C275.583 195.054 261.366 190.996 250.029 195.166C246.504 196.493 243.323 198.595 240.722 201.316C238.121 204.037 236.167 207.307 235.005 210.884L228.756 217.593C234.412 219.827 240.487 220.811 246.56 220.478C252.634 220.144 258.564 218.5 263.94 215.66C266.94 214.036 269.723 212.042 272.224 209.725C267.75 206.914 263.455 203.498 263.455 203.498Z" fill="#F2F2F2"/>
<path d="M258.916 183.093L271.251 179.187C272.787 172.581 272.685 165.7 270.952 159.142C265.997 170.138 251.459 172.833 243.176 181.61C240.614 184.367 238.706 187.664 237.594 191.257C236.482 194.85 236.195 198.647 236.753 202.366L234.159 211.151C240.22 210.634 246.096 208.811 251.383 205.809C256.671 202.807 261.243 198.697 264.785 193.762C266.745 190.974 268.345 187.951 269.548 184.764C264.287 184.239 258.916 183.093 258.916 183.093Z" fill="#F2F2F2"/>
<path d="M285 221.657C285 221.722 284.987 221.788 284.962 221.848C284.937 221.909 284.9 221.965 284.853 222.011C284.807 222.058 284.751 222.095 284.69 222.12C284.629 222.145 284.564 222.158 284.498 222.157H0.501947C0.368823 222.157 0.241149 222.105 0.147016 222.011C0.0528828 221.917 0 221.789 0 221.657C0 221.524 0.0528828 221.396 0.147016 221.302C0.241149 221.208 0.368823 221.156 0.501947 221.156H284.498C284.564 221.155 284.629 221.168 284.69 221.193C284.751 221.218 284.807 221.255 284.853 221.302C284.9 221.348 284.937 221.404 284.962 221.465C284.987 221.525 285 221.591 285 221.657Z" fill="#CCCCCC"/>
<path d="M117.682 200.302C167.768 200.302 208.37 159.785 208.37 109.804C208.37 59.8233 167.768 19.3059 117.682 19.3059C67.5969 19.3059 26.9946 59.8233 26.9946 109.804C26.9946 159.785 67.5969 200.302 117.682 200.302Z" fill="#E6E6E6"/>
<path d="M195.716 109.804C195.725 121.955 192.881 133.938 187.411 144.794C181.941 155.65 173.999 165.076 164.22 172.315C163.566 172.803 162.899 173.279 162.229 173.742C149.152 182.813 133.608 187.675 117.682 187.675C101.757 187.675 86.2121 182.813 73.1354 173.742C72.4647 173.279 71.7983 172.803 71.1445 172.315C61.3724 165.069 53.4345 155.642 47.9656 144.788C42.4967 133.934 39.6484 121.953 39.6484 109.804C39.6484 97.655 42.4967 85.6744 47.9656 74.8202C53.4345 63.9659 61.3724 54.539 71.1445 47.293C71.7983 46.8047 72.4647 46.3291 73.1354 45.8661C86.2121 36.7953 101.757 31.9336 117.682 31.9336C133.608 31.9336 149.152 36.7953 162.229 45.8661C162.899 46.3291 163.566 46.8047 164.22 47.293C173.999 54.5326 181.941 63.9582 187.411 74.8139C192.881 85.6697 195.725 97.6534 195.716 109.804Z" fill="white"/>
<path d="M117.682 180.94C157.052 180.94 188.967 149.091 188.967 109.804C188.967 70.5169 157.052 38.6683 117.682 38.6683C78.3128 38.6683 46.3975 70.5169 46.3975 109.804C46.3975 149.091 78.3128 180.94 117.682 180.94Z" fill="#7A8AF4"/>
<path opacity="0.2" d="M117.868 38.8672C116.787 38.8672 115.713 38.8954 114.645 38.9429C132.661 40.5228 149.403 48.8779 161.477 62.3155C173.551 75.7531 180.055 93.2684 179.671 111.313C179.288 129.357 172.045 146.581 159.41 159.496C146.775 172.41 129.694 180.049 111.626 180.864C113.683 181.042 115.764 181.139 117.868 181.139C136.774 181.139 154.906 173.644 168.274 160.303C181.643 146.963 189.153 128.869 189.153 110.003C189.153 91.1366 181.643 73.0429 168.274 59.7024C154.906 46.3618 136.774 38.8672 117.868 38.8672Z" fill="black"/>
<path d="M117.893 33.6173C117.278 33.6184 116.689 33.8626 116.254 34.2966C115.819 34.7305 115.574 35.3187 115.573 35.9324V46.0345C115.573 46.6485 115.818 47.2373 116.253 47.6715C116.688 48.1057 117.278 48.3496 117.893 48.3496C118.508 48.3496 119.099 48.1057 119.534 47.6715C119.969 47.2373 120.213 46.6485 120.213 46.0345V35.9324C120.212 35.3187 119.967 34.7305 119.532 34.2966C119.098 33.8626 118.508 33.6184 117.893 33.6173Z" fill="white"/>
<path d="M164.22 47.293C163.566 46.8048 162.899 46.3291 162.229 45.8661C161.826 45.8399 161.424 45.919 161.062 46.0954C160.699 46.2718 160.389 46.5395 160.162 46.8721L154.463 55.219C154.117 55.7264 153.987 56.3502 154.102 56.9533C154.216 57.5564 154.567 58.0893 155.075 58.4348C155.583 58.7803 156.209 58.9101 156.813 58.7957C157.417 58.6812 157.951 58.3319 158.298 57.8245L163.996 49.4776C164.213 49.1609 164.347 48.7952 164.386 48.4137C164.425 48.0321 164.368 47.6469 164.22 47.293Z" fill="white"/>
<path d="M190.11 85.3527C189.996 85.0713 189.827 84.8151 189.613 84.5989C189.399 84.3827 189.145 84.2107 188.864 84.0926C188.584 83.9746 188.283 83.9128 187.978 83.9109C187.674 83.909 187.372 83.967 187.09 84.0815L177.709 87.8824C177.14 88.1139 176.686 88.5615 176.447 89.1269C176.208 89.6922 176.204 90.3291 176.435 90.8976C176.667 91.466 177.115 91.9195 177.681 92.1584C178.247 92.3973 178.886 92.4021 179.456 92.1716L188.836 88.3707C189.406 88.1381 189.859 87.6899 190.098 87.1242C190.337 86.5586 190.341 85.9216 190.11 85.3527Z" fill="white"/>
<path d="M80.9009 55.219L75.2023 46.8721C74.9753 46.5395 74.6652 46.2718 74.3027 46.0954C73.9402 45.919 73.5379 45.8399 73.1355 45.8661C72.4648 46.3291 71.7984 46.8048 71.1446 47.293C70.9964 47.6469 70.9392 48.0321 70.9782 48.4137C71.0173 48.7952 71.1513 49.1609 71.3681 49.4776L77.0667 57.8245C77.4129 58.3319 77.947 58.6812 78.5513 58.7957C79.1557 58.9101 79.7808 58.7803 80.2893 58.4348C80.7977 58.0893 81.1478 57.5564 81.2625 56.9533C81.3772 56.3502 81.2471 55.7264 80.9009 55.219Z" fill="white"/>
<path d="M57.6554 87.8825L48.2744 84.0816C47.7045 83.8506 47.066 83.855 46.4993 84.0938C45.9326 84.3327 45.4842 84.7863 45.2526 85.355C45.0211 85.9237 45.0254 86.5609 45.2646 87.1265C45.5038 87.692 45.9583 88.1396 46.5282 88.3707L55.9091 92.1717C56.4789 92.4021 57.1171 92.3973 57.6835 92.1584C58.2498 91.9195 58.6979 91.466 58.9293 90.8976C59.1608 90.3291 59.1566 89.6923 58.9177 89.1269C58.6788 88.5615 58.2248 88.114 57.6554 87.8825Z" fill="white"/>
<path d="M117.893 171.259C117.278 171.26 116.689 171.504 116.254 171.938C115.819 172.372 115.574 172.96 115.573 173.574V183.676C115.573 184.29 115.818 184.879 116.253 185.313C116.688 185.747 117.278 185.991 117.893 185.991C118.508 185.991 119.099 185.747 119.534 185.313C119.969 184.879 120.213 184.29 120.213 183.676V173.574C120.212 172.96 119.967 172.372 119.532 171.938C119.098 171.504 118.508 171.26 117.893 171.259Z" fill="white"/>
<path d="M163.996 170.131L158.298 161.784C158.126 161.532 157.907 161.317 157.652 161.151C157.397 160.984 157.112 160.869 156.813 160.812C156.514 160.756 156.206 160.758 155.908 160.82C155.61 160.882 155.327 161.002 155.075 161.173C154.823 161.344 154.608 161.563 154.441 161.817C154.274 162.072 154.159 162.356 154.102 162.655C154.045 162.953 154.048 163.26 154.11 163.558C154.172 163.855 154.292 164.138 154.463 164.389L160.162 172.736C160.389 173.069 160.699 173.336 161.062 173.513C161.424 173.689 161.826 173.768 162.229 173.742C162.899 173.279 163.566 172.803 164.22 172.315C164.368 171.961 164.425 171.576 164.386 171.194C164.347 170.813 164.213 170.447 163.996 170.131Z" fill="white"/>
<path d="M188.837 131.237L179.456 127.436C178.886 127.205 178.247 127.21 177.68 127.449C177.114 127.688 176.665 128.141 176.434 128.71C176.202 129.279 176.207 129.916 176.446 130.481C176.685 131.047 177.139 131.494 177.709 131.726L187.09 135.527C187.66 135.757 188.298 135.752 188.865 135.513C189.431 135.274 189.879 134.821 190.11 134.252C190.342 133.684 190.338 133.047 190.099 132.482C189.86 131.916 189.406 131.469 188.837 131.237Z" fill="white"/>
<path d="M80.2893 161.173C79.7808 160.828 79.1557 160.698 78.5513 160.813C77.947 160.927 77.413 161.276 77.0667 161.784L71.3681 170.131C71.1513 170.447 71.0173 170.813 70.9782 171.194C70.9392 171.576 70.9964 171.961 71.1446 172.315C71.7984 172.803 72.4648 173.279 73.1355 173.742C73.5379 173.768 73.9402 173.689 74.3027 173.513C74.6652 173.336 74.9753 173.069 75.2023 172.736L80.9009 164.389C81.0724 164.138 81.1925 163.855 81.2546 163.558C81.3167 163.26 81.3194 162.953 81.2626 162.655C81.2058 162.356 81.0906 162.072 80.9236 161.817C80.7566 161.563 80.541 161.344 80.2893 161.173Z" fill="white"/>
<path d="M58.9291 128.708C58.8145 128.426 58.6455 128.17 58.4317 127.954C58.2179 127.738 57.9635 127.566 57.683 127.447C57.4025 127.329 57.1015 127.268 56.7971 127.266C56.4927 127.264 56.1909 127.322 55.909 127.436L46.5281 131.237C45.9587 131.469 45.5046 131.916 45.2657 132.482C45.0268 133.047 45.0227 133.684 45.2541 134.252C45.4855 134.821 45.9336 135.274 46.5 135.513C47.0663 135.752 47.7045 135.757 48.2744 135.526L57.6553 131.726C58.2244 131.493 58.678 131.045 58.9168 130.479C59.1555 129.913 59.16 129.276 58.9291 128.708Z" fill="white"/>
<path d="M120.903 108.655C121.117 109.921 120.82 111.219 120.076 112.266C119.332 113.313 118.202 114.023 116.934 114.239L75.7672 121.227C75.1392 121.334 74.4963 121.316 73.8753 121.174C73.2542 121.033 72.6671 120.771 72.1475 120.403C71.6279 120.036 71.186 119.569 70.847 119.031C70.508 118.493 70.2785 117.893 70.1717 117.267C70.0649 116.64 70.0828 115.998 70.2244 115.379C70.3661 114.759 70.6286 114.173 70.9972 113.655C71.3657 113.136 71.8329 112.695 72.3723 112.357C72.9116 112.018 73.5124 111.789 74.1404 111.683L115.308 104.695C116.576 104.481 117.877 104.778 118.926 105.521C119.975 106.263 120.686 107.39 120.903 108.655Z" fill="#3F3D56"/>
<path d="M164.23 154.17C163.639 154.763 162.836 155.099 161.997 155.102C161.158 155.105 160.353 154.776 159.757 154.187L115.441 110.311C114.846 109.721 114.51 108.92 114.507 108.083C114.504 107.246 114.835 106.443 115.425 105.849C116.016 105.255 116.818 104.919 117.657 104.915C118.495 104.912 119.301 105.24 119.897 105.829L164.213 149.705C164.808 150.296 165.144 151.097 165.147 151.934C165.15 152.771 164.821 153.575 164.23 154.17Z" fill="#3F3D56"/>
<path d="M117.682 115.276C120.711 115.276 123.166 112.826 123.166 109.804C123.166 106.782 120.711 104.332 117.682 104.332C114.654 104.332 112.199 106.782 112.199 109.804C112.199 112.826 114.654 115.276 117.682 115.276Z" fill="#CCCCCC"/>
<path d="M79.9122 14.9195C71.4952 28.1248 58.6527 36.8885 42.8146 42.6458C42.5017 42.8797 42.1456 43.0498 41.7668 43.1464C41.3879 43.2429 40.9938 43.2641 40.6067 43.2087C40.2197 43.1532 39.8474 43.0223 39.511 42.8233C39.1747 42.6242 38.881 42.361 38.6466 42.0487C30.0435 30.586 31.9861 14.2035 43.3403 5.44461C46.0854 3.3307 49.2239 1.78198 52.5736 0.888377C55.9234 -0.00522948 59.4176 -0.22593 62.8536 0.239095C66.2895 0.70412 69.5986 1.8456 72.5889 3.59728C75.5791 5.34895 78.1908 7.67592 80.2725 10.4431L80.5105 10.7601C80.7449 11.0724 80.9153 11.4278 81.0121 11.8058C81.1089 12.1839 81.1301 12.5772 81.0746 12.9635C81.019 13.3497 80.8878 13.7212 80.6883 14.0568C80.4889 14.3925 80.2251 14.6856 79.9122 14.9195Z" fill="#E6E6E6"/>
<path d="M155.092 10.4431C157.174 7.67592 159.785 5.34894 162.776 3.59727C165.766 1.8456 169.075 0.704121 172.511 0.239097C175.947 -0.225928 179.441 -0.0052341 182.791 0.888372C186.141 1.78198 189.279 3.33069 192.024 5.44461C203.378 14.2035 205.321 30.586 196.718 42.0487C196.484 42.361 196.19 42.6242 195.854 42.8232C195.517 43.0223 195.145 43.1532 194.758 43.2087C194.371 43.2641 193.977 43.2429 193.598 43.1464C193.219 43.0498 192.863 42.8797 192.55 42.6458C177.847 37.0284 165.79 27.3076 155.452 14.9195C154.82 14.4471 154.402 13.7435 154.29 12.9634C154.178 12.1834 154.381 11.3909 154.854 10.7601L155.092 10.4431Z" fill="#E6E6E6"/>
<path d="M151.402 188.208C150.866 188.509 150.471 189.009 150.304 189.6C150.137 190.191 150.211 190.823 150.511 191.359L163.9 215.235C164.2 215.771 164.702 216.165 165.294 216.332C165.886 216.499 166.52 216.424 167.057 216.124C167.594 215.824 167.989 215.324 168.156 214.733C168.324 214.143 168.249 213.51 167.949 212.974L154.56 189.098C154.258 188.563 153.757 188.169 153.165 188.002C152.573 187.836 151.939 187.91 151.402 188.208Z" fill="#E6E6E6"/>
<path d="M80.8046 189.098L67.4158 212.974C67.1155 213.51 67.0407 214.143 67.208 214.733C67.3752 215.324 67.7708 215.824 68.3076 216.124C68.8445 216.424 69.4787 216.499 70.0707 216.332C70.6628 216.165 71.1642 215.771 71.4648 215.235L84.8536 191.359C85.0025 191.094 85.0975 190.802 85.1332 190.5C85.169 190.198 85.1448 189.892 85.0621 189.599C84.9793 189.307 84.8396 189.033 84.6509 188.794C84.4622 188.556 84.2282 188.356 83.9623 188.208C83.6964 188.059 83.4038 187.965 83.1012 187.929C82.7986 187.893 82.4919 187.918 82.1987 188C81.9054 188.083 81.6314 188.222 81.3922 188.411C81.153 188.599 80.9533 188.833 80.8046 189.098Z" fill="#E6E6E6"/>
<path d="M166.612 221.348C170.572 221.348 173.782 218.144 173.782 214.193C173.782 210.241 170.572 207.037 166.612 207.037C162.651 207.037 159.441 210.241 159.441 214.193C159.441 218.144 162.651 221.348 166.612 221.348Z" fill="#E6E6E6"/>
<path d="M171.673 38.2474C175.633 38.2474 178.844 35.0437 178.844 31.0917C178.844 27.1397 175.633 23.936 171.673 23.936C167.713 23.936 164.502 27.1397 164.502 31.0917C164.502 35.0437 167.713 38.2474 171.673 38.2474Z" fill="#E6E6E6"/>
<path d="M117.261 21.4106C121.221 21.4106 124.431 18.2069 124.431 14.2549C124.431 10.3029 121.221 7.09924 117.261 7.09924C113.3 7.09924 110.09 10.3029 110.09 14.2549C110.09 18.2069 113.3 21.4106 117.261 21.4106Z" fill="#E6E6E6"/>
<path d="M65.3787 37.4056C69.3389 37.4056 72.5493 34.2019 72.5493 30.2499C72.5493 26.2979 69.3389 23.0942 65.3787 23.0942C61.4184 23.0942 58.208 26.2979 58.208 30.2499C58.208 34.2019 61.4184 37.4056 65.3787 37.4056Z" fill="#E6E6E6"/>
<path d="M70.0183 221.348C73.9786 221.348 77.189 218.144 77.189 214.193C77.189 210.241 73.9786 207.037 70.0183 207.037C66.0581 207.037 62.8477 210.241 62.8477 214.193C62.8477 218.144 66.0581 221.348 70.0183 221.348Z" fill="#E6E6E6"/>
<path d="M160.987 150.145C161.269 150.587 161.646 150.962 162.089 151.242C162.532 151.523 163.032 151.704 163.553 151.771C164.074 151.838 164.603 151.791 165.103 151.632C165.604 151.473 166.063 151.207 166.449 150.851L177.701 156.868L177.098 150.276L166.505 145.573C165.864 144.965 165.022 144.613 164.138 144.584C163.255 144.554 162.391 144.85 161.711 145.413C161.03 145.977 160.581 146.77 160.448 147.642C160.314 148.514 160.506 149.405 160.987 150.145Z" fill="#FFB7B7"/>
<path d="M169.185 152.446L173.594 146.372L194.836 156.393L221.27 151.444C222.576 151.199 223.921 151.245 225.208 151.577C226.495 151.909 227.693 152.52 228.716 153.366C229.74 154.212 230.565 155.273 231.132 156.473C231.698 157.673 231.994 158.983 231.996 160.309C231.998 162.706 231.047 165.005 229.352 166.702C227.658 168.399 225.357 169.357 222.956 169.364L192.664 169.42L169.185 152.446Z" fill="#3F3D56"/>
<path d="M162.394 257.351L157.933 255.222L164.061 236.614L170.645 239.756L162.394 257.351Z" fill="#FFB7B7"/>
<path d="M192.302 254.351C191.978 254.554 191.653 254.753 191.326 254.953C190.674 255.352 190.015 255.744 189.356 256.13C189.025 256.323 188.691 256.516 188.36 256.706V256.715L188.34 256.719L188.334 256.722L187.829 256.846L187.105 254.936L186.771 254.057L186.299 252.811L185.434 250.532L180.879 238.531L187.96 236.788L188.226 237.87H188.229L188.36 238.407L190.834 248.419L191.339 250.466L191.355 250.529L191.66 251.752L191.922 252.811L192.214 253.995L192.302 254.351Z" fill="#FFB7B7"/>
<path d="M234.545 212.206C234.096 212.926 233.637 213.642 233.175 214.352C232.317 215.673 231.435 216.974 230.531 218.256C230.531 218.259 230.528 218.259 230.524 218.262C229.997 218.75 229.414 219.175 228.788 219.528C228.761 219.548 228.732 219.561 228.706 219.577C228.244 219.831 227.754 220.028 227.244 220.162C227.061 220.208 226.874 220.254 226.69 220.3C226.028 220.457 225.373 220.591 224.721 220.708C223.561 220.914 222.414 221.062 221.274 221.153C221.182 221.163 221.09 221.17 220.998 221.176C216.309 221.519 211.745 220.967 206.98 220.061C204.627 219.616 202.225 219.083 199.738 218.531C198.925 218.347 198.109 218.168 197.284 217.988C197.221 217.975 197.156 217.958 197.09 217.945C195.911 217.687 194.711 217.432 193.482 217.18C191.936 216.863 190.34 216.556 188.682 216.264L188.8 218.596C188.898 220.39 189.272 222.157 189.907 223.838C190.615 225.905 191.176 227.54 189.993 230.944L189.422 232.592C189.718 233.41 189.819 234.286 189.719 235.15C189.618 236.014 189.318 236.843 188.842 237.572L188.728 237.745L193.482 249.75L193.79 250.528H191.356L188.361 250.531H183.285L175.961 235.868L175.61 235.168V235.133L176.367 206.955C176.377 206.706 176.397 206.454 176.43 206.206C176.563 205.076 176.921 203.984 177.482 202.994C178.043 202.003 178.796 201.134 179.697 200.438C180.56 199.764 181.549 199.269 182.606 198.98C183.663 198.692 184.767 198.616 185.854 198.757L188.361 199.08L193.482 199.741L197.09 200.209L197.162 200.218L207.802 201.592L208.566 198.485L208.707 198.433L213.186 196.795L228.679 191.128L228.719 191.115L229.738 190.742L229.859 190.938C229.895 190.997 229.931 191.056 229.964 191.115C230.971 192.917 231.791 194.817 232.412 196.785C233.455 200 234.314 203.272 234.984 206.585C235.014 206.729 235.04 206.86 235.063 206.978L235.073 207.014C235.082 207.069 235.089 207.105 235.092 207.115C235.449 208.6 235.2 210.411 234.545 212.206Z" fill="#2F2E41"/>
<path d="M235.199 201.822C235.15 201.613 235.088 201.4 235.022 201.194C234.502 199.634 233.896 198.103 233.207 196.61C232.433 194.909 231.506 193.088 230.402 191.116C229.868 190.161 229.293 189.168 228.678 188.137C228.37 187.62 228.05 187.094 227.718 186.557C227.705 186.533 227.691 186.509 227.675 186.486L227.58 186.329L212.251 188.376L206.543 189.138L206.202 191.976L206.12 192.679C206.117 192.679 206.117 192.679 206.12 192.682L205.891 194.599V194.602L205.586 197.133L205.56 197.13L197.089 196.034L188.359 194.906L183.67 194.301C182.584 194.16 181.48 194.235 180.422 194.524C179.365 194.813 178.376 195.308 177.513 195.982C176.612 196.679 175.859 197.548 175.298 198.538C174.737 199.528 174.38 200.62 174.246 201.75C174.216 201.979 174.197 202.214 174.187 202.447L169.763 212.907C167.116 219.163 165.43 225.782 164.763 232.541L161.519 242.89L161.981 242.933L168.855 243.57L170.671 243.74L174.669 237.917C175.124 237.253 175.557 236.569 175.96 235.87C176.623 234.727 177.213 233.543 177.726 232.325L186.374 211.789C187.042 211.904 187.704 212.013 188.359 212.116C191.391 212.607 194.3 213.007 197.089 213.316C206.156 214.327 214.008 214.405 220.997 213.548C222.96 213.31 224.857 212.996 226.689 212.607C227.361 212.466 228.024 212.314 228.678 212.152C228.832 212.116 228.983 212.08 229.134 212.041C230.488 211.692 231.733 211.01 232.755 210.057C233.777 209.105 234.543 207.911 234.983 206.586C235.508 205.051 235.583 203.398 235.199 201.822Z" fill="#2F2E41"/>
<path d="M163.819 254.312L158.992 252.004L158.235 251.641L157.026 254.604L148.585 256.458C148.167 256.549 147.79 256.771 147.508 257.091C147.226 257.412 147.055 257.814 147.018 258.239C146.982 258.664 147.082 259.089 147.305 259.453C147.528 259.817 147.861 260.1 148.257 260.261L156.505 263.619L159.123 261.268L158.481 264.423L161.587 265.689L164.992 254.875L163.819 254.312Z" fill="#2F2E41"/>
<path d="M193.482 249.75L193.791 250.528H193.482V249.75Z" fill="#2F2E41"/>
<path d="M191.802 250.694L186.744 252.443L185.95 252.716L187.18 255.671L182.489 262.915C182.257 263.273 182.145 263.696 182.171 264.121C182.197 264.547 182.358 264.953 182.632 265.281C182.905 265.608 183.277 265.84 183.691 265.942C184.106 266.044 184.543 266.011 184.938 265.847L193.166 262.443L193.369 258.933L195.138 261.627L198.237 260.345L193.032 250.27L191.802 250.694Z" fill="#2F2E41"/>
<path d="M233.938 206.56C233.637 206.559 233.342 206.486 233.076 206.346L206.387 192.43L206.078 191.17L205.497 187.183L205.505 187.145L208.043 175.468C207.997 175.368 207.9 175.203 207.79 175.017C206.657 173.101 203.208 167.27 209.79 159.241L221.345 145.797L231.263 145.371L231.376 145.513C234.028 148.835 235.816 152.759 236.582 156.936C237.348 161.114 237.068 165.415 235.767 169.459L234.734 188.071L235.842 191.829C236.489 194.038 236.382 196.399 235.537 198.541L235.791 204.627C235.801 204.876 235.761 205.125 235.672 205.359C235.583 205.592 235.449 205.806 235.276 205.986C235.103 206.166 234.895 206.31 234.665 206.409C234.435 206.507 234.188 206.559 233.938 206.56Z" fill="#3F3D56"/>
<path d="M210.787 221.909C211.239 221.642 211.627 221.28 211.924 220.848C212.221 220.415 212.419 219.923 212.504 219.406C212.59 218.889 212.561 218.36 212.419 217.855C212.277 217.35 212.026 216.883 211.684 216.486L218.101 205.473L211.478 205.846L206.4 216.246C205.769 216.864 205.387 217.692 205.327 218.572C205.267 219.453 205.532 220.324 206.073 221.022C206.614 221.72 207.392 222.196 208.261 222.359C209.13 222.523 210.029 222.363 210.787 221.909Z" fill="#FFB7B7"/>
<path d="M213.376 213.813L207.447 209.204L218.221 188.368L214.184 161.834C213.984 160.522 214.077 159.183 214.454 157.911C214.832 156.639 215.485 155.465 216.368 154.474C217.251 153.482 218.342 152.697 219.564 152.173C220.785 151.65 222.107 151.401 223.436 151.444C225.836 151.526 228.105 152.554 229.746 154.303C231.387 156.053 232.266 158.38 232.189 160.775L231.192 190.987L213.376 213.813Z" fill="#3F3D56"/>
<path d="M214.984 140.211V130.417C214.982 126.937 216.365 123.598 218.83 121.135C221.294 118.673 224.638 117.288 228.126 117.286C231.614 117.283 234.96 118.664 237.427 121.123C239.895 123.583 241.283 126.92 241.285 130.4V130.417C243.603 135.237 242.153 137.528 241.285 140.211C241.284 140.678 241.098 141.125 240.767 141.456C240.436 141.786 239.987 141.972 239.519 141.973H216.75C216.282 141.972 215.833 141.786 215.502 141.456C215.171 141.126 214.985 140.678 214.984 140.211Z" fill="#2F2E41"/>
<path d="M223.823 141.336C229.259 141.336 233.666 136.938 233.666 131.513C233.666 126.088 229.259 121.69 223.823 121.69C218.386 121.69 213.979 126.088 213.979 131.513C213.979 136.938 218.386 141.336 223.823 141.336Z" fill="#FFB7B7"/>
<path d="M234.124 134.088C234.035 134.074 233.946 134.056 233.857 134.041C232.321 133.77 230.786 133.503 229.255 133.226L229.114 129.763L227.259 132.865C223.029 134.266 219.07 133.475 215.347 131.727C214.118 131.145 212.927 130.489 211.778 129.763C212.091 127.848 212.829 126.027 213.938 124.433C215.046 122.839 216.499 121.513 218.187 120.551C218.328 120.471 218.464 120.401 218.605 120.331L218.607 120.33L218.609 120.329L218.61 120.328L218.61 120.326C218.849 120.214 219.094 120.106 219.338 120.008C221.249 119.262 223.334 119.073 225.349 119.463C227.363 119.853 229.226 120.805 230.72 122.21C233.725 125.073 235.077 129.801 234.124 134.088Z" fill="#2F2E41"/>
</g>
<defs>
<clipPath id="clip0_386_1252">
<rect width="285" height="266" fill="white"/>
</clipPath>
</defs>
</svg>
