<svg width="303" height="246" viewBox="0 0 303 246" fill="none" xmlns="http://www.w3.org/2000/svg">
<g clip-path="url(#clip0_386_1936)">
<path d="M241.893 44.8095C240.319 62.1696 235.834 80.4749 228.802 98.1371C220.105 119.979 208.223 139.217 194.44 153.771L193.675 153.104C207.392 138.619 219.219 119.466 227.88 97.7147C235.707 78.0585 240.362 57.6033 241.349 38.5694L242.326 38.7332C242.222 40.7434 242.078 42.7689 241.893 44.8095Z" fill="#F2F2F2"/>
<path d="M248.162 145.634C228.803 176.464 205.316 198.492 182.028 207.66L181.557 206.796C204.684 197.691 228.033 175.775 247.303 145.086L248.162 145.634Z" fill="#F2F2F2"/>
<path d="M241.423 66.4235C239.849 83.7837 235.365 102.089 228.332 119.751C219.635 141.593 207.753 160.831 193.97 175.385L193.206 174.718C206.922 160.233 218.75 141.08 227.41 119.329C235.237 99.6725 239.892 79.2173 240.879 60.1834L241.856 60.3472C241.753 62.3574 241.608 64.3829 241.423 66.4235Z" fill="#F2F2F2"/>
<path d="M24.0931 110.992H11.3913C11.1199 110.993 10.8519 110.932 10.6074 110.814C10.363 110.696 10.1483 110.524 9.9796 110.312C9.81293 110.104 9.69535 109.862 9.63567 109.602C9.57599 109.343 9.57577 109.074 9.63501 108.814C10.8447 103.471 10.7687 97.9163 9.41329 92.6082C9.32755 92.2587 9.34828 91.8915 9.47281 91.5539C9.59733 91.2163 9.81995 90.9238 10.112 90.7139C16.6433 86.0117 21.7869 86.1482 25.4001 91.1202C25.563 91.3468 25.6712 91.6081 25.7162 91.8836C26.6816 97.6933 26.7351 103.618 25.8746 109.444C25.8148 109.874 25.6013 110.268 25.2738 110.553C24.9463 110.837 24.5268 110.993 24.0931 110.992Z" fill="#E6E6E6"/>
<path d="M20.155 98.2595H15.7855C15.5439 98.2595 15.3122 98.1634 15.1413 97.9924C14.9705 97.8213 14.8745 97.5894 14.8745 97.3475C14.8745 97.1056 14.9705 96.8737 15.1413 96.7027C15.3122 96.5316 15.5439 96.4355 15.7855 96.4355H20.155C20.3963 96.4361 20.6275 96.5324 20.798 96.7033C20.9684 96.8743 21.0641 97.106 21.0641 97.3475C21.0641 97.589 20.9684 97.8207 20.798 97.9917C20.6275 98.1626 20.3963 98.259 20.155 98.2595Z" fill="white"/>
<path d="M20.155 101.458H15.7855C15.5439 101.458 15.3122 101.362 15.1413 101.191C14.9705 101.02 14.8745 100.788 14.8745 100.546C14.8745 100.304 14.9705 100.072 15.1413 99.901C15.3122 99.7299 15.5439 99.6339 15.7855 99.6339H20.155C20.3963 99.6344 20.6275 99.7307 20.798 99.9016C20.9684 100.073 21.0641 100.304 21.0641 100.546C21.0641 100.787 20.9684 101.019 20.798 101.19C20.6275 101.361 20.3963 101.457 20.155 101.458Z" fill="white"/>
<path d="M20.155 104.656H15.7855C15.5439 104.656 15.3122 104.56 15.1413 104.389C14.9705 104.218 14.8745 103.986 14.8745 103.744C14.8745 103.502 14.9705 103.27 15.1413 103.099C15.3122 102.928 15.5439 102.832 15.7855 102.832H20.155C20.3963 102.833 20.6275 102.929 20.798 103.1C20.9684 103.271 21.0641 103.503 21.0641 103.744C21.0641 103.986 20.9684 104.217 20.798 104.388C20.6275 104.559 20.3963 104.656 20.155 104.656Z" fill="white"/>
<path d="M254.936 167.762H242.235C241.963 167.763 241.695 167.702 241.451 167.584C241.206 167.466 240.992 167.294 240.823 167.081C240.656 166.874 240.539 166.632 240.479 166.372C240.419 166.113 240.419 165.843 240.478 165.584C241.688 160.241 241.612 154.686 240.257 149.378C240.171 149.029 240.192 148.661 240.316 148.324C240.441 147.986 240.663 147.694 240.955 147.484C247.487 142.782 252.63 142.918 256.243 147.89C256.406 148.117 256.514 148.378 256.559 148.653C257.525 154.463 257.578 160.388 256.718 166.214C256.658 166.644 256.445 167.038 256.117 167.323C255.79 167.607 255.37 167.763 254.936 167.762Z" fill="#E6E6E6"/>
<path d="M250.999 155.029H246.629C246.388 155.029 246.157 154.933 245.986 154.762C245.816 154.591 245.72 154.359 245.72 154.117C245.72 153.876 245.816 153.644 245.986 153.473C246.157 153.302 246.388 153.206 246.629 153.205H250.999C251.24 153.205 251.472 153.302 251.643 153.473C251.814 153.644 251.91 153.876 251.91 154.117C251.91 154.359 251.814 154.591 251.643 154.762C251.472 154.933 251.24 155.029 250.999 155.029Z" fill="white"/>
<path d="M250.999 158.228H246.629C246.388 158.227 246.157 158.131 245.986 157.96C245.816 157.789 245.72 157.557 245.72 157.316C245.72 157.074 245.816 156.842 245.986 156.671C246.157 156.501 246.388 156.404 246.629 156.404H250.999C251.24 156.404 251.472 156.5 251.643 156.671C251.814 156.842 251.91 157.074 251.91 157.316C251.91 157.558 251.814 157.79 251.643 157.961C251.472 158.132 251.24 158.228 250.999 158.228Z" fill="white"/>
<path d="M250.999 161.426H246.629C246.388 161.425 246.157 161.329 245.986 161.158C245.816 160.987 245.72 160.755 245.72 160.514C245.72 160.272 245.816 160.041 245.986 159.87C246.157 159.699 246.388 159.602 246.629 159.602H250.999C251.24 159.602 251.472 159.698 251.643 159.869C251.814 160.04 251.91 160.272 251.91 160.514C251.91 160.756 251.814 160.988 251.643 161.159C251.472 161.33 251.24 161.426 250.999 161.426Z" fill="white"/>
<path d="M253 245.5C253 245.566 252.99 245.631 252.97 245.692C252.95 245.752 252.921 245.808 252.884 245.854C252.847 245.9 252.803 245.937 252.755 245.962C252.707 245.987 252.655 246 252.603 246H0.39684C0.291592 246 0.190658 245.947 0.116236 245.854C0.0418143 245.76 0 245.633 0 245.5C0 245.367 0.0418143 245.24 0.116236 245.146C0.190658 245.053 0.291592 245 0.39684 245H252.603C252.655 245 252.707 245.013 252.755 245.038C252.803 245.063 252.847 245.1 252.884 245.146C252.921 245.192 252.95 245.248 252.97 245.308C252.99 245.369 253 245.434 253 245.5Z" fill="#CCCCCC"/>
<path d="M79.6782 216.396L78.886 205.366C73.6967 202.769 67.9525 201.48 62.1523 201.61C70.3124 207.924 69.6588 220.543 75.3101 229.179C77.0933 231.859 79.4561 234.103 82.2234 235.745C84.9908 237.386 88.0917 238.384 91.2965 238.663L98.0876 242.573C98.8644 237.434 98.5189 232.187 97.0749 227.193C95.6308 222.2 93.1225 217.58 89.7228 213.65C87.7938 211.465 85.5975 209.531 83.1857 207.895C81.7013 212.162 79.6782 216.396 79.6782 216.396Z" fill="#F2F2F2"/>
<path d="M223.321 217.995L224.114 206.965C229.303 204.368 235.047 203.079 240.847 203.209C232.687 209.523 233.341 222.142 227.69 230.778C225.906 233.458 223.544 235.702 220.776 237.344C218.009 238.985 214.908 239.983 211.703 240.262L204.912 244.173C204.135 239.033 204.481 233.786 205.925 228.793C207.369 223.799 209.877 219.179 213.277 215.25C215.206 213.064 217.402 211.131 219.814 209.495C221.298 213.761 223.321 217.995 223.321 217.995Z" fill="#F2F2F2"/>
<path d="M147.906 93.5273C152.097 93.5273 155.494 90.1265 155.494 85.9314C155.494 81.7362 152.097 78.3354 147.906 78.3354C143.715 78.3354 140.317 81.7362 140.317 85.9314C140.317 90.1265 143.715 93.5273 147.906 93.5273Z" fill="#7A8AF4"/>
<path d="M151.801 82.7656C151.687 82.6566 151.535 82.5958 151.377 82.5958C151.22 82.5958 151.068 82.6566 150.954 82.7656C149.344 84.051 147.898 85.5297 146.648 87.1684C146.341 86.5741 146.034 85.9799 145.727 85.3856C145.373 84.6997 144.339 85.3056 144.693 85.991C145.142 86.8602 145.59 87.7293 146.039 88.5985C146.093 88.6873 146.169 88.7606 146.26 88.8114C146.35 88.8623 146.452 88.889 146.556 88.889C146.66 88.889 146.762 88.8623 146.853 88.8114C146.943 88.7606 147.019 88.6873 147.074 88.5985C148.405 86.721 149.997 85.0425 151.801 83.6137C151.913 83.5007 151.975 83.3484 151.975 83.1896C151.975 83.0309 151.913 82.8785 151.801 82.7656Z" fill="white"/>
<path d="M113.952 107.471L102.509 89.482L115.759 82.3785L119.237 96.1031L143.742 109.358C144.709 109.009 145.757 108.95 146.757 109.188C147.758 109.425 148.668 109.948 149.376 110.694C150.084 111.44 150.561 112.377 150.747 113.389C150.933 114.401 150.82 115.446 150.424 116.395C150.027 117.345 149.363 118.158 148.512 118.736C147.661 119.314 146.661 119.632 145.633 119.651C144.605 119.67 143.594 119.389 142.722 118.843C141.851 118.296 141.158 117.508 140.726 116.573L113.952 107.471Z" fill="#A0616A"/>
<path d="M94.1486 67.9063C90.5532 73.1906 103.33 92.3984 103.33 92.3984C103.953 91.0554 109.903 106.138 110.9 105.247C113.732 102.714 118.166 95.6612 120.631 95.3468C122.04 95.1669 117.362 85.1608 117.362 85.1608C117.362 85.1608 115.224 79.2521 112.322 71.7044C111.542 69.5553 110.23 67.6389 108.511 66.1336C106.791 64.6282 104.719 63.5829 102.487 63.0948C102.487 63.0948 97.744 62.6221 94.1486 67.9063Z" fill="#3F3D56"/>
<path d="M94.3244 240.069L99.7588 240.069L102.344 219.086L94.3232 219.086L94.3244 240.069Z" fill="#A0616A"/>
<path d="M92.938 238.293L94.4676 238.293L100.44 235.862L103.64 238.292H103.641C105.45 238.292 107.184 239.012 108.464 240.292C109.743 241.573 110.461 243.309 110.461 245.12V245.342L92.9383 245.342L92.938 238.293Z" fill="#2F2E41"/>
<path d="M119.572 240.069L125.006 240.069L127.592 219.086L119.571 219.086L119.572 240.069Z" fill="#A0616A"/>
<path d="M118.186 238.293L119.715 238.293L125.687 235.862L128.888 238.292H128.888C130.697 238.292 132.432 239.012 133.711 240.292C134.99 241.573 135.709 243.309 135.709 245.12V245.342L118.186 245.342L118.186 238.293Z" fill="#2F2E41"/>
<path d="M121.924 125.354L86.5756 126.239C79.8622 129.889 79.7603 137.789 81.9599 147.169C81.9599 147.169 81.2173 152.744 82.7025 154.23C84.1877 155.717 84.9302 155.717 84.1877 158.319C83.4451 160.92 87.3685 165.169 86.8919 165.647C86.4154 166.124 85.3015 168.725 85.3015 168.725L89.0144 189.91C89.0144 189.91 91.6134 226.705 92.356 227.448C93.0986 228.192 93.8412 227.448 93.0986 229.307C92.356 231.165 91.6134 230.422 92.356 231.165C93.0138 231.875 93.6335 232.619 94.2125 233.395H103.189C103.189 233.395 103.866 229.678 103.866 229.307C103.866 228.935 104.609 226.705 104.609 226.333C104.609 225.962 103.952 225.305 103.952 225.305C103.725 224.549 103.572 223.773 103.495 222.988C103.495 222.245 101.267 193.627 101.267 193.627L105.722 156.46L116.49 192.883C116.49 192.883 116.49 224.847 117.232 225.59C117.975 226.333 117.975 225.962 117.604 227.448C117.232 228.935 115.747 228.563 116.861 229.678C117.975 230.793 118.346 228.935 117.975 230.793L117.604 232.652L128.742 232.811C128.742 232.811 130.227 229.678 129.485 228.563C128.742 227.448 128.787 227.753 129.693 225.928C130.599 224.103 130.97 223.732 130.599 223.36C130.227 222.988 130.227 221.011 130.227 221.011L128.371 185.45C128.371 185.45 128 147.912 128 146.797C127.972 146.223 128.077 145.651 128.308 145.125V143.611L126.886 138.249L121.924 125.354Z" fill="#2F2E41"/>
<path d="M100.69 51.7785C106.756 51.7785 111.673 46.8563 111.673 40.7845C111.673 34.7126 106.756 29.7904 100.69 29.7904C94.6243 29.7904 89.707 34.7126 89.707 40.7845C89.707 46.8563 94.6243 51.7785 100.69 51.7785Z" fill="#A0616A"/>
<path d="M106.182 59.0448C108.548 60.4529 109.963 63.0401 110.776 65.6727C112.28 70.5468 113.185 75.5862 113.472 80.6796L114.33 95.928L124.959 128.396C115.747 136.199 81.1228 130.17 81.1228 130.17C81.1228 130.17 80.0599 129.815 81.1228 128.751C82.1856 127.687 83.2203 128.63 82.1575 127.566C81.0946 126.502 81.8273 127.687 82.1816 126.623C82.5359 125.559 82.1816 126.268 81.8273 125.914C81.473 125.559 84.57 122.367 84.57 122.367L81.7357 103.73L78.1929 66.1377C82.4443 60.818 90.9946 57.6821 90.9946 57.6821L93.2038 53.7014L104.25 54.586L106.182 59.0448Z" fill="#3F3D56"/>
<path d="M109.744 34.9435C110.597 35.5808 111.23 36.4701 111.552 37.4861C111.676 35.8257 111.684 34.1587 111.576 32.4972C111.446 31.3297 110.625 31.0671 109.674 30.7628C108.815 30.4879 107.844 30.1773 107.583 29.0439C104.131 25.6819 98.1208 25.8515 94.0077 27.0242C91.7445 27.6695 90.4423 28.4986 90.3258 28.9843L90.3016 29.0843L90.2097 29.1303C88.4651 30.0035 88.1255 32.7607 88.148 34.9199C88.1905 38.9881 89.5937 43.6085 90.3842 43.9839C90.4261 44.0038 90.4367 43.996 90.4548 43.9809C91.6451 43.0287 93.0973 44.0532 93.7355 44.6102C94.1119 42.0818 95.3239 39.7525 97.1778 37.9945C99.0318 36.2364 101.421 35.151 103.963 34.9115C104.794 34.8312 105.617 34.6929 106.429 34.4978C106.84 34.3912 107.263 34.3357 107.688 34.3323C108.419 34.3212 109.137 34.5345 109.744 34.9435Z" fill="#2F2E41"/>
<path d="M177.924 134.114L199.051 112.639L204.618 95.4624L195.66 91.8356C191.223 96.316 186.655 110.032 186.655 110.032L172.235 129.405C172.12 129.448 172.005 129.493 171.892 129.547C171.228 129.86 170.656 130.34 170.232 130.94C169.807 131.54 169.545 132.239 169.469 132.97C169.393 133.701 169.507 134.439 169.8 135.113C170.093 135.787 170.554 136.374 171.139 136.817C171.725 137.261 172.415 137.546 173.142 137.644C173.87 137.743 174.611 137.652 175.293 137.38C175.975 137.108 176.575 136.665 177.036 136.093C177.497 135.521 177.803 134.839 177.924 134.114Z" fill="#FFB8B8"/>
<path d="M193.217 93.8005L204.545 97.0807L204.587 97.0726C208.751 96.2633 212.044 89.3365 214.074 83.6683C214.742 81.7987 214.676 79.745 213.889 77.9225C213.102 76.1 211.653 74.6445 209.835 73.8504C208.49 73.2737 207.01 73.0851 205.564 73.3059C204.117 73.5267 202.761 74.1481 201.649 75.0999L196.001 79.9682L193.217 93.8005Z" fill="#7A8AF4"/>
<path d="M183.525 239.431L177.433 239.431L174.535 215.909L183.526 215.909L183.525 239.431Z" fill="#FFB8B8"/>
<path d="M185.079 237.44L183.364 237.44L176.67 234.715L173.082 237.439H173.081C171.054 237.439 169.109 238.246 167.675 239.681C166.241 241.116 165.436 243.063 165.436 245.093V245.341L185.079 245.342L185.079 237.44Z" fill="#2F2E41"/>
<path d="M210.557 239.431L204.464 239.431L201.566 215.909L210.558 215.909L210.557 239.431Z" fill="#FFB8B8"/>
<path d="M212.11 237.44L210.396 237.44L203.701 234.715L200.113 237.439H200.113C198.085 237.439 196.14 238.246 194.706 239.681C193.273 241.116 192.467 243.063 192.467 245.093V245.341L212.11 245.342L212.11 237.44Z" fill="#2F2E41"/>
<path d="M219.846 138.115C219.846 138.115 220.557 146.659 218.779 154.848C217 163.037 217 186.1 217 186.1L213.088 231.04L201.35 229.972L198.149 154.848L186.768 180.127L187.835 183.687L186.413 184.577C186.413 184.577 187.479 191.52 186.768 191.52C186.056 191.52 184.278 192.588 184.278 192.588L185.701 229.26L173.607 228.904L169.339 177.279L173.963 147.728L174.319 142.031L175.919 142.097L176.734 139.717L178.231 135.622L219.846 138.115Z" fill="#2F2E41"/>
<path d="M220.461 139.909L220.524 139.82C223.909 135.076 218.818 123.674 218.05 122.022L221.284 120.971L220.556 114.773L220.211 112.01L222.683 109.535L222.69 109.474L224.113 97.0123L226.181 88.7356C226.961 85.6067 226.894 82.3266 225.989 79.2319C225.083 76.1372 223.371 73.3394 221.029 71.1258L216.247 66.6129L210.436 58.006H201.065L197.852 64.0812C194.737 64.8019 191.973 66.5937 190.042 69.1445C188.111 71.6953 187.135 74.8434 187.285 78.0404L188.013 93.974L185.162 113.813L185.16 117.403L181.952 120.972L182.653 124.478L180.211 125.526L179.133 130.562C178.687 131.151 175.742 135.082 175.742 136.156C175.742 136.318 175.861 136.474 176.116 136.647C178.123 138.007 189.216 140.78 194.125 138.814C199.355 136.721 220.143 139.861 220.353 139.893L220.461 139.909Z" fill="#7A8AF4"/>
<path d="M204.54 55.2275C211.395 55.2275 216.951 49.6655 216.951 42.8043C216.951 35.9432 211.395 30.3811 204.54 30.3811C197.686 30.3811 192.13 35.9432 192.13 42.8043C192.13 49.6655 197.686 55.2275 204.54 55.2275Z" fill="#FFB8B8"/>
<path d="M203.352 55.4286C205.274 55.409 207.19 55.225 209.081 54.8788C210.953 54.4471 215.083 51.2504 216.208 49.3619C217.045 47.9588 217.547 45.7885 217.82 44.215C218.19 42.1326 218.119 39.9957 217.611 37.9426C217.104 35.8895 216.171 33.9661 214.873 32.2968C214.373 31.5975 213.693 31.0465 212.906 30.7021C212.836 30.6769 212.765 30.6548 212.693 30.6362C211.551 30.3669 210.517 29.7624 209.721 28.9001C209.567 28.7256 209.4 28.5624 209.222 28.4118C208.33 27.6966 207.281 27.2029 206.161 26.9711C204.353 26.5364 201.765 27.0812 198.472 28.5919C196.817 29.3509 194.98 29.1392 193.565 28.8699C193.486 28.8567 193.404 28.8645 193.329 28.8925C193.253 28.9206 193.187 28.9679 193.135 29.0298C192.551 29.6082 191.769 29.9436 190.948 29.9688C190.445 30.0039 189.935 30.7149 189.321 31.6408C189.181 31.851 189.019 32.0963 188.9 32.246L188.877 31.9649L188.6 32.2863C188.166 32.7915 187.866 33.3986 187.729 34.051C187.591 34.7035 187.621 35.38 187.816 36.0177C188.01 36.6554 188.363 37.2335 188.84 37.6982C189.318 38.1628 189.905 38.4989 190.548 38.6752C191.057 38.7969 191.578 38.8662 192.102 38.8821C192.419 38.9024 192.748 38.9234 193.063 38.9699C194.076 39.1504 195.025 39.5908 195.817 40.248C196.61 40.9053 197.218 41.757 197.583 42.7199C197.67 42.9424 197.806 43.1422 197.981 43.3037C198.157 43.4651 198.367 43.5841 198.596 43.6513C198.825 43.7185 199.066 43.7321 199.301 43.6912C199.536 43.6503 199.758 43.5559 199.951 43.4153C200.271 43.1519 200.651 42.97 201.057 42.8851C201.463 42.8002 201.883 42.8149 202.282 42.9278C202.629 43.1094 202.903 43.4049 203.058 43.7647C203.246 44.1652 203.549 44.5007 203.928 44.7284C205.22 45.3535 205.383 48.2667 204.988 50.7089C204.607 53.0629 203.778 54.7802 202.972 54.8848C202.351 54.9653 202.281 55.0114 202.239 55.1227L202.202 55.2223L202.274 55.3127C202.621 55.4285 202.988 55.468 203.352 55.4286Z" fill="#2F2E41"/>
<path d="M193.055 95.1292L187.089 87.5204C181.013 89.1954 170.231 98.8155 170.231 98.8155L148.089 108.434C147.349 108.31 146.591 108.383 145.889 108.645C145.187 108.908 144.566 109.351 144.09 109.93C143.613 110.508 143.297 111.203 143.174 111.943C143.051 112.683 143.124 113.442 143.387 114.145C143.65 114.847 144.094 115.468 144.673 115.944C145.251 116.42 145.945 116.736 146.685 116.858C147.424 116.981 148.183 116.906 148.884 116.642C149.585 116.378 150.205 115.933 150.68 115.353L179.686 107.253L193.055 95.1292Z" fill="#FFB8B8"/>
<path d="M191.625 96.8686L201.038 86.3652L201.561 78.9227C201.658 77.4613 201.345 76.0017 200.657 74.709C199.969 73.4163 198.934 72.3419 197.668 71.6073C195.945 70.6231 193.913 70.3304 191.983 70.7884C190.053 71.2464 188.369 72.4209 187.271 74.0744C183.945 79.092 180.367 85.876 182.208 89.7009L182.227 89.7397L191.625 96.8686Z" fill="#7A8AF4"/>
<path d="M104.87 136.348L80.4059 123.806C78.6658 122.914 78.0894 120.547 79.121 118.531L95.072 87.3541C96.1037 85.3377 98.3587 84.423 100.099 85.3151L124.563 97.857C126.303 98.7491 126.879 101.115 125.848 103.132L109.897 134.309C108.865 136.325 106.61 137.24 104.87 136.348Z" fill="#E6E6E6"/>
<path d="M100.69 130.582L84.0688 122.061C82.4391 121.225 81.8992 119.009 82.8654 117.121L96.1172 91.2196C97.0834 89.3311 99.1953 88.4746 100.825 89.3101L120.9 99.6019C122.53 100.437 123.07 102.653 122.103 104.542L114.904 118.613C110.601 127.024 107.949 134.304 100.69 130.582Z" fill="white"/>
<path d="M108.908 116.437L94.1858 108.89C94.0058 108.762 93.8779 108.573 93.8255 108.358C93.7732 108.143 93.7998 107.916 93.9005 107.719C94.0013 107.522 94.1695 107.368 94.3743 107.285C94.5792 107.202 94.807 107.195 95.0163 107.267L109.738 114.814C109.918 114.942 110.046 115.131 110.098 115.346C110.151 115.561 110.124 115.788 110.023 115.985C109.923 116.182 109.754 116.336 109.55 116.419C109.345 116.502 109.117 116.509 108.908 116.437Z" fill="#7A8AF4"/>
<path d="M95.9048 113.82L92.5451 112.097C92.3651 111.969 92.2373 111.78 92.1849 111.565C92.1325 111.35 92.1592 111.123 92.2599 110.926C92.3607 110.729 92.5288 110.575 92.7337 110.492C92.9386 110.409 93.1664 110.403 93.3757 110.474L96.7354 112.196C96.9154 112.325 97.0432 112.514 97.0956 112.729C97.148 112.943 97.1213 113.17 97.0206 113.367C96.9198 113.564 96.7517 113.718 96.5468 113.801C96.342 113.884 96.1141 113.891 95.9048 113.82Z" fill="#7A8AF4"/>
<path d="M100.214 120.077L90.904 115.304C90.724 115.176 90.5962 114.987 90.5438 114.772C90.4914 114.557 90.5181 114.331 90.6188 114.134C90.7196 113.937 90.8877 113.783 91.0926 113.7C91.2974 113.616 91.5253 113.61 91.7346 113.681L101.045 118.454C101.225 118.582 101.353 118.771 101.405 118.986C101.457 119.201 101.431 119.428 101.33 119.625C101.229 119.822 101.061 119.976 100.856 120.059C100.651 120.142 100.423 120.149 100.214 120.077Z" fill="#7A8AF4"/>
<path d="M114.733 105.051L100.011 97.5032C99.8314 97.3748 99.7036 97.1859 99.6512 96.971C99.5989 96.756 99.6255 96.5294 99.7262 96.3324C99.827 96.1355 99.9951 95.9814 100.2 95.8984C100.405 95.8153 100.633 95.8087 100.842 95.8799L115.564 103.427C115.744 103.556 115.872 103.745 115.924 103.96C115.976 104.174 115.95 104.401 115.849 104.598C115.748 104.795 115.58 104.949 115.375 105.032C115.17 105.115 114.943 105.122 114.733 105.051Z" fill="#7A8AF4"/>
<path d="M101.73 102.433L98.3708 100.71C98.1908 100.582 98.0629 100.393 98.0106 100.178C97.9582 99.9632 97.9849 99.7366 98.0856 99.5396C98.1864 99.3427 98.3545 99.1886 98.5594 99.1056C98.7642 99.0225 98.9921 99.0159 99.2014 99.0871L102.561 100.809C102.741 100.938 102.869 101.127 102.921 101.342C102.974 101.557 102.947 101.783 102.846 101.98C102.746 102.177 102.577 102.331 102.373 102.414C102.168 102.497 101.94 102.504 101.73 102.433Z" fill="#7A8AF4"/>
<path d="M106.04 108.691L96.7297 103.918C96.5497 103.789 96.4218 103.6 96.3695 103.385C96.3171 103.17 96.3437 102.944 96.4445 102.747C96.5452 102.55 96.7134 102.396 96.9183 102.313C97.1231 102.23 97.351 102.223 97.5603 102.294L106.87 107.067C107.05 107.196 107.178 107.385 107.231 107.6C107.283 107.815 107.256 108.041 107.156 108.238C107.055 108.435 106.887 108.589 106.682 108.672C106.477 108.755 106.249 108.762 106.04 108.691Z" fill="#7A8AF4"/>
<path d="M84.5975 109.205L79.0708 88.6091L93.8397 85.8105L93.0455 99.9475L112.451 119.949C113.478 119.907 114.495 120.165 115.379 120.691C116.262 121.218 116.973 121.991 117.425 122.915C117.878 123.839 118.051 124.875 117.926 125.897C117.8 126.918 117.38 127.881 116.717 128.668C116.054 129.455 115.176 130.031 114.192 130.327C113.207 130.623 112.158 130.626 111.171 130.336C110.185 130.045 109.304 129.474 108.637 128.691C107.969 127.908 107.544 126.948 107.412 125.927L84.5975 109.205Z" fill="#A0616A"/>
<path d="M77.5596 65.5167C72.5464 69.4784 78.9808 91.6379 78.9808 91.6379C79.977 90.5435 81.1346 106.718 82.3523 106.167C85.813 104.602 92.156 99.2043 94.6014 99.6442C95.9998 99.8958 94.5347 88.9457 94.5347 88.9457C94.5347 88.9457 94.2652 82.6672 93.7587 74.5959C93.6578 72.3114 92.9811 70.0895 91.7916 68.1372C90.6022 66.1849 88.9386 64.5656 86.9557 63.43C86.9557 63.43 82.5727 61.5551 77.5596 65.5167Z" fill="#3F3D56"/>
<path d="M160.973 154.919L147.623 148.609C147.338 148.475 147.086 148.278 146.888 148.032C146.689 147.787 146.549 147.5 146.477 147.192C146.404 146.892 146.401 146.578 146.467 146.276C146.533 145.974 146.666 145.691 146.857 145.447C150.724 140.5 153.379 134.715 154.61 128.555C154.703 128.083 154.957 127.658 155.328 127.353C155.699 127.047 156.164 126.88 156.644 126.88C163.453 126.903 168.541 129.391 171.768 134.275C171.938 134.529 172.051 134.818 172.098 135.12C172.146 135.422 172.127 135.731 172.043 136.025C170.174 142.471 167.331 148.593 163.613 154.178C163.337 154.6 162.917 154.908 162.432 155.044C161.946 155.18 161.428 155.136 160.973 154.919Z" fill="#E6E6E6"/>
<path d="M164.9 146.069L154.693 141.244C154.439 141.124 154.243 140.908 154.148 140.643C154.053 140.379 154.067 140.087 154.187 139.833C154.307 139.579 154.523 139.383 154.787 139.288C155.052 139.193 155.343 139.207 155.597 139.327L165.804 144.152C165.93 144.211 166.043 144.295 166.136 144.398C166.23 144.501 166.302 144.622 166.349 144.753C166.396 144.884 166.417 145.023 166.41 145.162C166.403 145.301 166.369 145.437 166.31 145.563C166.25 145.689 166.167 145.802 166.064 145.895C165.961 145.989 165.841 146.061 165.71 146.108C165.579 146.155 165.44 146.176 165.301 146.169C165.162 146.162 165.026 146.128 164.9 146.069Z" fill="white"/>
<path d="M166.486 142.707L156.278 137.883C156.024 137.762 155.828 137.546 155.734 137.282C155.639 137.017 155.653 136.726 155.773 136.471C155.893 136.217 156.109 136.021 156.373 135.926C156.637 135.831 156.928 135.846 157.182 135.966L167.39 140.791C167.644 140.911 167.84 141.127 167.935 141.391C168.029 141.656 168.015 141.947 167.895 142.202C167.775 142.456 167.559 142.652 167.295 142.747C167.031 142.842 166.74 142.827 166.486 142.707Z" fill="white"/>
<path d="M152.846 37.1863L151.896 37.2905C147.66 20.6256 139.448 9.08032 128.148 3.90261C113.783 -2.67918 96.0204 1.74061 78.1317 16.348C60.1521 31.03 44.2354 54.2211 33.314 81.6505L32.3921 81.2281C43.3614 53.679 59.3598 30.3758 77.4401 15.6122C95.6112 0.773974 113.736 -3.67823 128.477 3.07589C140.101 8.40198 148.528 20.1972 152.846 37.1863Z" fill="#F2F2F2"/>
<path d="M48.0187 58.8902C45.5339 64.1301 43.1704 69.5586 40.9939 75.0248C28.469 106.481 22.122 138.606 22.6406 167.929L21.6617 167.824C21.1425 138.393 27.5079 106.157 40.0719 74.6025C42.2547 69.1208 44.6249 63.677 47.1169 58.4223L48.0187 58.8902Z" fill="#F2F2F2"/>
<path d="M47.549 80.5042C45.0641 85.7441 42.7007 91.1726 40.5241 96.6389C27.9993 128.095 21.6522 160.22 22.1709 189.543L21.192 189.438C20.6728 160.007 27.0381 127.771 39.6022 96.2165C41.785 90.7348 44.1552 85.291 46.6471 80.0363L47.549 80.5042Z" fill="#F2F2F2"/>
<path d="M21.2391 88.3649C22.3212 86.7368 21.6807 84.4062 19.8085 83.1593C17.9363 81.9125 15.5414 82.2216 14.4593 83.8497C13.3772 85.4778 14.0177 87.8085 15.8899 89.0553C17.7621 90.3021 20.157 89.993 21.2391 88.3649Z" fill="#CCCCCC"/>
<path d="M251.66 147.161C252.742 145.533 252.102 143.203 250.229 141.956C248.357 140.709 245.962 141.018 244.88 142.646C243.798 144.274 244.439 146.605 246.311 147.852C248.183 149.099 250.578 148.789 251.66 147.161Z" fill="#CCCCCC"/>
</g>
<defs>
<clipPath id="clip0_386_1936">
<rect width="303" height="246" fill="white"/>
</clipPath>
</defs>
</svg>
