<svg width="329" height="224" viewBox="0 0 329 224" fill="none" xmlns="http://www.w3.org/2000/svg">
<path d="M82.9877 209.948C82.6246 209.965 82.2653 209.869 81.9582 209.675C81.6512 209.48 81.4113 209.195 81.2711 208.86C81.1309 208.524 81.0972 208.153 81.1744 207.797C81.2517 207.441 81.4363 207.118 81.7032 206.871C81.7478 206.693 81.7799 206.565 81.8246 206.387C81.4772 205.503 80.8741 204.743 80.0927 204.205C79.3113 203.666 78.3872 203.374 77.4387 203.365C76.4903 203.356 75.5608 203.631 74.7694 204.155C73.978 204.678 73.3607 205.427 72.9967 206.304C70.8962 211.229 68.1776 216.327 69.5296 221.752C60.5991 202.793 63.6362 179.211 76.8342 162.997C80.4822 160.984 83.4391 157.408 84.2089 153.255C82.4034 153.868 80.1523 152.397 81.5098 150.492C82.0982 149.764 82.6924 149.042 83.2807 148.314C76.4224 140.997 68.2507 152.496 75.7998 162.371C73.3303 165.472 71.1912 168.824 69.4175 172.37C69.8271 168.604 69.3382 164.794 67.991 161.254C66.6257 157.955 64.0665 155.176 61.8129 152.324C59.0728 148.849 53.4333 150.452 53.0646 154.862C55.5933 155.695 55.9219 159.354 53.0293 159.854C53.7869 168.059 59.138 175.599 66.508 179.197C63.7863 186.846 62.7235 194.989 63.3905 203.082C62.0896 193.623 51.9536 191.328 44.8691 187.569C44.4182 187.279 43.8928 187.127 43.3572 187.131C42.8215 187.136 42.2987 187.296 41.8525 187.593C41.4063 187.89 41.056 188.31 40.8443 188.803C40.6326 189.296 40.5687 189.84 40.6603 190.369C41.6382 190.767 42.5741 191.261 43.4543 191.845C43.8667 192.123 44.1833 192.522 44.3606 192.987C44.5379 193.452 44.5673 193.96 44.4448 194.443C44.3222 194.925 44.0536 195.358 43.676 195.681C43.2983 196.005 42.8299 196.204 42.3351 196.25C45.9062 205.103 55.1388 211.048 64.6213 211.015C65.5326 214.981 66.853 218.842 68.5611 222.535H82.635C82.6855 222.378 82.7309 222.217 82.7763 222.06C81.4735 222.142 80.1657 222.064 78.8819 221.828C82.3285 217.74 84.994 215.655 82.9881 209.948L82.9877 209.948Z" fill="#E6E6E6"/>
<path d="M208.46 209.948C208.823 209.965 209.182 209.869 209.489 209.675C209.796 209.48 210.036 209.195 210.177 208.86C210.317 208.524 210.35 208.153 210.273 207.797C210.196 207.441 210.011 207.118 209.744 206.871C209.7 206.693 209.668 206.565 209.623 206.387C209.97 205.503 210.574 204.743 211.355 204.205C212.136 203.666 213.06 203.374 214.009 203.365C214.957 203.356 215.887 203.631 216.678 204.155C217.47 204.678 218.087 205.427 218.451 206.304C220.551 211.229 223.27 216.327 221.918 221.752C230.849 202.793 227.811 179.211 214.614 162.997C210.965 160.984 208.009 157.408 207.239 153.255C209.044 153.868 211.295 152.397 209.938 150.492C209.349 149.764 208.755 149.042 208.167 148.314C215.025 140.997 223.197 152.496 215.648 162.371C218.117 165.472 220.256 168.824 222.03 172.37C221.621 168.604 222.109 164.794 223.457 161.254C224.822 157.955 227.381 155.176 229.635 152.324C232.375 148.849 238.014 150.452 238.383 154.862C235.854 155.695 235.526 159.354 238.418 159.854C237.661 168.059 232.31 175.599 224.94 179.197C227.661 186.846 228.724 194.989 228.057 203.082C229.358 193.623 239.494 191.328 246.579 187.569C247.03 187.279 247.555 187.127 248.09 187.131C248.626 187.136 249.149 187.296 249.595 187.593C250.041 187.89 250.392 188.31 250.603 188.803C250.815 189.296 250.879 189.84 250.787 190.369C249.81 190.767 248.874 191.261 247.993 191.845C247.581 192.123 247.264 192.522 247.087 192.987C246.91 193.452 246.88 193.96 247.003 194.443C247.125 194.925 247.394 195.358 247.772 195.681C248.149 196.005 248.618 196.204 249.113 196.25C245.542 205.103 236.309 211.048 226.826 211.015C225.915 214.981 224.595 218.842 222.887 222.535H208.813C208.762 222.378 208.717 222.217 208.671 222.06C209.974 222.142 211.282 222.064 212.566 221.828C209.119 217.74 206.454 215.654 208.46 209.948Z" fill="#E6E6E6"/>
<path d="M213.678 212.042L207.617 213.422L199.414 190.662L208.359 188.624L213.678 212.042Z" fill="#FFB6B6"/>
<path d="M215.331 218.326L196.692 222.574L196.639 222.338C196.201 220.411 196.545 218.388 197.596 216.715C198.647 215.042 200.318 213.856 202.242 213.418L205.059 210.054L211.999 211.194L213.626 210.823L215.331 218.326Z" fill="#2F2E41"/>
<path d="M311.452 101.101L314.784 106.357L296.13 121.733L291.212 113.975L311.452 101.101Z" fill="#FFB6B6"/>
<path d="M316.808 97.4337L327.056 113.597L326.852 113.726C325.186 114.786 323.168 115.139 321.243 114.709C319.317 114.278 317.641 113.099 316.583 111.431L312.474 109.901L311.218 102.97L310.324 101.559L316.808 97.4337Z" fill="#2F2E41"/>
<path d="M118.249 44.9075L116.752 36.2162L139.511 25.922L144.426 17.2055C144.267 16.4406 144.323 15.6467 144.586 14.9114C144.85 14.1761 145.311 13.528 145.919 13.0388C146.527 12.5496 147.258 12.2383 148.032 12.1392C148.805 12.0401 149.591 12.1572 150.303 12.4774C151.014 12.7977 151.623 13.3086 152.063 13.9539C152.503 14.5992 152.756 15.3536 152.794 16.1339C152.833 16.9142 152.655 17.6899 152.281 18.3755C151.907 19.061 151.351 19.6296 150.675 20.0186L142.59 32.5395L118.249 44.9075Z" fill="#A0616A"/>
<path d="M111.331 37.8027L121.58 32.5586L124.293 42.7628L117.174 48.0486L111.331 37.8027Z" fill="#7A8AF4"/>
<path d="M88.3325 211.251L94.5293 211.251L97.4774 187.308L88.3311 187.309L88.3325 211.251Z" fill="#A0616A"/>
<path d="M96.5915 211.81V207.602L94.9624 207.701L88.3306 208.095L86.7958 208.189L85.6224 222.283L85.5596 223.038H89.9598L90.1012 222.288L90.7403 218.878L92.3904 222.288L92.7518 223.038H104.418C105.112 223.034 105.776 222.756 106.267 222.263C106.757 221.771 107.034 221.105 107.037 220.41C107.529 218.106 97.8278 213.127 96.5915 211.81Z" fill="#2F2E41"/>
<path d="M14.7722 116.233L13.3276 122.269L35.8843 130.723L38.0161 121.814L14.7722 116.233Z" fill="#A0616A"/>
<path d="M12.7946 124.147L16.88 125.128L17.163 123.518L18.3273 116.967L18.5934 115.45L5.18464 111.021L4.46576 110.783L3.4398 115.069L4.13526 115.382L7.29733 116.8L3.60152 117.612L2.78881 117.789L0.0688209 129.152C-0.088764 129.829 0.0267144 130.542 0.390203 131.134C0.753691 131.726 1.33583 132.151 2.01019 132.316C4.13164 133.333 11.2278 125.044 12.7946 124.147Z" fill="#2F2E41"/>
<path d="M97.9141 56.2957L89.9376 52.5608L74.0308 71.8429L64.3418 74.2974C63.6469 73.9426 62.8677 73.7872 62.0901 73.8482C61.3126 73.9091 60.567 74.1842 59.9357 74.643C59.3045 75.1018 58.8121 75.7265 58.513 76.448C58.2139 77.1695 58.1197 77.9597 58.2408 78.7315C58.3619 79.5032 58.6937 80.2264 59.1994 80.8212C59.705 81.4159 60.365 81.8591 61.1064 82.1018C61.8477 82.3444 62.6416 82.377 63.4004 82.1961C64.1591 82.0152 64.8531 81.6277 65.4058 81.0765L79.5936 76.5602L97.9141 56.2957Z" fill="#A0616A"/>
<path d="M143.074 120.427C123.251 120.427 100.469 98.3922 80.3123 108.862C19.2839 140.56 27.6848 87.5177 10.1519 67.7909L10.7275 66.6344C30.0731 84.0097 54.2267 98.1467 80.5773 107.516C104.39 115.984 128.381 119.908 149.949 118.873L149.986 120.263C147.708 120.373 145.404 120.427 143.074 120.427Z" fill="#E6E6E6"/>
<path d="M140.718 90.6079C143.617 90.6079 145.967 88.2536 145.967 85.3494C145.967 82.4453 143.617 80.0909 140.718 80.0909C137.818 80.0909 135.468 82.4453 135.468 85.3494C135.468 88.2536 137.818 90.6079 140.718 90.6079Z" fill="#F2F2F2"/>
<path d="M89.8724 87.3552C89.8724 87.3552 76.785 95.8915 80.2456 101.564C80.365 101.759 64.6127 122.599 64.6127 122.599L34.8763 120.708L33.8286 130.677L60.3021 138.357C60.3021 138.357 66.7785 143.123 71.7818 137.872C76.785 132.621 93.4502 116.54 93.4502 116.54L94.254 149.007L85.8882 193.995L98.3794 193.202L110.537 148.067L115.025 96.9409L89.8724 87.3552Z" fill="#2F2E41"/>
<path d="M99.1946 36.1237L93.6911 40.3014L87.4182 53.7119L93.4501 61.9177C93.4501 61.9177 98.524 70.7258 90.4025 79.2558C82.281 87.7859 76.0445 96.8964 82.545 96.5711C89.0455 96.2458 115.373 109.659 115.546 98.67C115.72 87.6809 116.07 79.2558 116.07 79.2558L122.973 61.7194C122.973 61.7194 127.085 51.2579 124.198 48.1264C121.311 44.9949 117.445 40.9933 117.445 40.9933L110.415 33.9514H104.067L99.1946 36.1237Z" fill="#7A8AF4"/>
<path d="M109.468 10.3571C121.815 17.3946 111.679 35.9629 99.1021 29.3509C86.7558 22.3137 96.8919 3.74529 109.468 10.3571Z" fill="#A0616A"/>
<path d="M116.07 14.2592C115.205 15.3862 113.398 14.8578 109.858 15.662C109.866 14.4602 109.727 13.262 109.445 12.0939C109.182 13.5402 108.605 14.911 107.755 16.1094C104.681 16.4509 108.449 25.8035 106.875 32.6798C104.848 18.173 100.583 21.9736 102.738 24.851C104.117 26.6931 103.197 32.2193 99.0596 29.4562C92.2325 32.7062 82.5086 16.5617 93.2856 8.99019C93.0931 4.89757 97.6393 4.25107 100.439 5.50935C107.233 0.439782 114.995 6.93564 116.07 14.2592Z" fill="#2F2E41"/>
<path d="M84.3913 3.67364C81.6425 20.6025 66.909 0.560235 59.9814 17.22C57.8033 23.2532 61.5404 27.5691 63.9043 32.5769C64.4438 36.6924 59.0988 38.7804 58.5389 42.5687C58.3831 51.2539 72.3716 50.7224 76.2822 45.2429C80.3004 39.5067 75.5021 31.8108 77.9173 25.6538C81.3119 17.1058 95.1168 17.0423 96.3195 7.09733C93.9903 3.77499 87.7273 -0.0301361 84.3913 3.67364Z" fill="#2F2E41"/>
<path d="M95.527 5.32795C95.4371 5.36589 95.3471 5.40379 95.2667 5.44647H95.2619C95.1862 5.48441 95.1105 5.52231 95.0348 5.56499C95.0253 5.56973 95.0206 5.57449 95.0111 5.57925C94.9117 5.48442 94.8123 5.38958 94.7082 5.29476C94.6813 5.44919 94.6877 5.60762 94.7271 5.75935L94.7413 5.81627C94.836 5.91581 94.9354 6.01064 95.0395 6.1102C95.1342 6.03908 95.2241 5.96323 95.3187 5.89211C95.3756 5.84471 95.4324 5.79728 95.4939 5.74989C95.5033 5.62662 95.5175 5.4844 95.5317 5.32794L95.527 5.32795ZM98.3762 0.056112C96.2653 -0.427466 95.5838 2.33646 95.3803 3.66864C94.6135 -1.16704 91.4235 0.354791 92.5263 3.6544C92.8778 4.63131 93.431 5.52302 94.1497 6.27137C94.2491 6.38514 94.358 6.49891 94.4715 6.61272C94.3437 7.27642 94.9874 7.10576 95.8583 6.4942C96.5013 6.0361 97.0961 5.51348 97.6332 4.93444C99.3702 3.10923 100.724 0.66767 98.3762 0.056112ZM98.4425 2.77737C97.7913 3.61855 97.0606 4.3949 96.2606 5.09566C96.0098 5.32321 95.7542 5.54127 95.4939 5.74989C95.4892 5.79254 95.4891 5.83047 95.4844 5.86366C95.4661 5.90972 95.444 5.95413 95.4181 5.9964C95.1531 6.47523 94.8549 6.21448 94.7413 5.81627C94.7319 5.80202 94.7177 5.78778 94.7082 5.77359C94.33 5.38223 94.001 4.94599 93.7285 4.4746C91.7737 1.08012 94.9212 -1.22868 94.765 5.10986C94.7362 5.16801 94.717 5.23045 94.7082 5.29476C94.6813 5.44919 94.6877 5.60762 94.7271 5.75935L94.7413 5.81627C94.836 5.91581 94.9354 6.01064 95.0395 6.1102C95.1342 6.03908 95.2241 5.96323 95.3187 5.89211C95.3756 5.84471 95.4324 5.79728 95.4939 5.74989C95.5033 5.62662 95.5175 5.4844 95.5317 5.32794V5.3232C95.6548 4.05266 95.9909 1.76756 96.6109 1.1465C97.974 0.0987592 99.7393 1.23184 98.4425 2.77737ZM95.527 5.32795C95.4371 5.36589 95.3471 5.40379 95.2667 5.44647H95.2619C95.1862 5.48441 95.1105 5.52231 95.0348 5.56499C95.0253 5.56973 95.0206 5.57449 95.0111 5.57925C94.9117 5.48442 94.8123 5.38958 94.7082 5.29476C94.6813 5.44919 94.6877 5.60762 94.7271 5.75935L94.7413 5.81627C94.836 5.91581 94.9354 6.01064 95.0395 6.1102C95.1342 6.03908 95.2241 5.96323 95.3187 5.89211C95.3756 5.84471 95.4324 5.79728 95.4939 5.74989C95.5033 5.62662 95.5175 5.4844 95.5317 5.32794L95.527 5.32795Z" fill="#2F2E41"/>
<path d="M209.644 98.663L205.084 110.575L183.693 152.84L202.489 202.007L212.19 199.442L204.194 152.84L227.133 124.922L254.375 143.429C254.375 143.429 266.456 152.877 271.052 143.921C275.649 134.964 305.389 115.914 305.389 115.914L298.031 108.053L263.783 124.107L240.145 90.78L209.644 98.663Z" fill="#2F2E41"/>
<path d="M232.652 42.4759L225.146 34.3978L212.27 32.6234L196.493 43.6869L196.652 55.9326L204.451 84.7886C204.451 84.7886 201.48 105.52 209.778 105.312C218.076 105.104 222.599 100.961 225.978 101.804C229.358 102.648 243.724 106.238 244.634 102.477C245.545 98.717 250.385 101.409 250.172 97.8522C249.96 94.295 237.071 68.6534 237.071 68.6534L240.275 43.0094L232.652 42.4759Z" fill="#7A8AF4"/>
<path d="M280.18 5.29097C280.247 5.96089 280.167 6.63742 279.945 7.2729C279.723 7.90838 279.364 8.48735 278.895 8.96904C278.425 9.45073 277.856 9.82341 277.227 10.0608C276.598 10.2983 275.924 10.3947 275.254 10.3433L257.992 43.227L253.358 36.1008L271.002 5.06566C271.163 3.94359 271.729 2.91961 272.593 2.18776C273.457 1.4559 274.559 1.067 275.691 1.09477C276.822 1.12255 277.904 1.56505 278.731 2.33844C279.559 3.11182 280.074 4.16236 280.18 5.29097Z" fill="#FFB6B6"/>
<path d="M225.838 48.5903C225.838 48.5903 225.153 54.4395 231.727 55.8876C238.301 57.3357 256.514 46.9113 259.5 45.3191C260.435 44.8205 261.704 42.3767 263.006 39.2548C263.59 37.8533 264.181 36.3151 264.752 34.7548C265.082 33.8519 266.663 33.6055 266.974 32.7101C267.283 31.8196 266.323 30.2799 266.603 29.4407C267.933 25.457 268.876 22.2965 268.876 22.2965L264.518 14.0983C258.425 17.3253 255.299 24.4334 253 32.6225L225.838 48.5903Z" fill="#7A8AF4"/>
<path d="M149.061 12.8425C149.163 13.508 149.41 14.1428 149.784 14.7024C150.158 15.262 150.649 15.7327 151.224 16.0813C151.8 16.4299 152.444 16.648 153.112 16.7202C153.78 16.7924 154.456 16.717 155.092 16.4992L180.021 44.0095L182.727 35.9483L157.891 10.3236C157.455 9.27754 156.651 8.42808 155.631 7.93615C154.612 7.44422 153.447 7.34402 152.359 7.65451C151.271 7.965 150.334 8.66462 149.726 9.6208C149.118 10.577 148.881 11.7233 149.061 12.8425Z" fill="#FFB6B6"/>
<path d="M212.492 41.1417C212.492 41.1417 214.616 46.6332 208.613 49.6832C202.61 52.7332 182.372 47.2061 179.083 46.4131C178.054 46.1647 176.215 44.1167 174.174 41.4205C173.258 40.21 172.302 38.8689 171.36 37.5014C170.814 36.71 169.222 36.8677 168.697 36.0787C168.175 35.2941 168.72 33.5628 168.239 32.8204C165.956 29.2969 164.254 26.4732 164.254 26.4732L166.425 17.4436C173.131 19.0403 177.933 25.1388 182.204 32.4911L212.492 41.1417Z" fill="#7A8AF4"/>
<path d="M218.965 30.5685C225.731 30.5685 231.217 25.0742 231.217 18.2967C231.217 11.5192 225.731 6.0249 218.965 6.0249C212.199 6.0249 206.714 11.5192 206.714 18.2967C206.714 25.0742 212.199 30.5685 218.965 30.5685Z" fill="#FFB6B6"/>
<path d="M232.95 11.2701C231.661 9.27305 229.243 7.94207 226.898 8.31608C226.68 6.8174 226.056 5.40742 225.093 4.23965C224.13 3.07187 222.866 2.19107 221.438 1.69315C220.01 1.19524 218.473 1.09929 216.994 1.41575C215.516 1.73222 214.152 2.44895 213.052 3.48794C212.69 3.23279 212.269 3.07554 211.828 3.0314C211.388 2.98727 210.944 3.05776 210.539 3.23603C209.732 3.60353 209.03 4.16793 208.497 4.87755C207.152 6.55798 206.287 8.57236 205.994 10.7063C205.701 12.8402 205.991 15.0137 206.833 16.9955C206.547 15.9522 207.591 14.9707 208.645 14.7365C209.7 14.5024 210.806 14.7239 211.876 14.5714C213.247 14.3761 214.479 13.5795 215.852 13.4002C217.016 13.3244 218.184 13.4747 219.291 13.8429C220.398 14.2111 221.564 14.368 222.729 14.3054C223.885 14.168 225.373 18.5545 225.353 21.644C225.35 22.2295 225.47 22.9813 226.041 23.1055C226.745 23.2585 227.152 22.2859 227.822 22.0209C228.13 21.9324 228.461 21.9672 228.745 22.1182C229.028 22.2692 229.242 22.5245 229.341 22.8303C229.426 23.1411 229.435 23.4677 229.368 23.7828C229.301 24.0979 229.159 24.3924 228.956 24.6418C228.544 25.1362 228.056 25.5607 227.509 25.899L227.785 26.1288C228.046 26.4058 228.396 26.5831 228.774 26.6301C229.152 26.6771 229.534 26.591 229.856 26.3865C230.488 25.9576 231 25.3737 231.343 24.6903C232.635 22.6885 233.559 20.471 234.071 18.1429C234.503 15.8046 234.238 13.2672 232.95 11.2701Z" fill="#2F2E41"/>
<path d="M323.585 59.6707C307.783 71.6593 276.34 67.8719 266.582 88.4077C237.039 150.585 211.765 103.221 185.897 98.0988L185.659 96.8288C211.554 98.9801 239.33 95.6421 265.983 87.1751C290.07 79.5243 311.56 68.1428 328.128 54.274L328.996 55.3595C327.247 56.8247 325.443 58.2618 323.585 59.6707Z" fill="#E6E6E6"/>
<path d="M256.773 222.52C256.397 223.636 41.5115 223.636 41.1055 222.522C41.4814 221.403 256.367 221.403 256.773 222.52Z" fill="#CCCCCC"/>
</svg>
