<svg width="349" height="285" viewBox="0 0 349 285" fill="none" xmlns="http://www.w3.org/2000/svg">
<g clip-path="url(#clip0_386_1297)">
<path d="M210.576 263.702C215.628 267.094 221.385 284.237 221.385 284.237C221.385 284.237 203.365 285.413 198.314 282.024C197.112 281.218 196.08 280.182 195.278 278.977C194.476 277.771 193.919 276.42 193.639 274.998C193.358 273.577 193.36 272.115 193.644 270.694C193.928 269.274 194.489 267.923 195.294 266.72C196.1 265.517 197.134 264.484 198.338 263.681C199.542 262.878 200.892 262.321 202.311 262.041C203.73 261.76 205.19 261.763 206.608 262.048C208.026 262.333 209.374 262.895 210.576 263.702Z" fill="#F1F1F1"/>
<path d="M221.59 284.108L221.307 284.333C211.01 271.395 195.471 266.926 195.315 266.882L195.412 266.534C195.569 266.578 211.217 271.075 221.59 284.108Z" fill="white"/>
<path d="M237.597 256.863C237.274 265.288 221.284 284.526 221.284 284.526C221.284 284.526 206.818 264.114 207.14 255.692C207.295 251.647 209.048 247.829 212.013 245.079C214.979 242.328 218.914 240.87 222.953 241.026C226.992 241.181 230.803 242.937 233.55 245.907C236.296 248.877 237.752 252.818 237.597 256.863Z" fill="#F1F1F1"/>
<path d="M221.585 284.675L221.115 284.505C228.862 262.96 222.839 241.377 222.777 241.161L223.258 241.023C223.32 241.24 229.388 262.973 221.585 284.675Z" fill="white"/>
<path d="M180.18 208.928H43.1348C40.6933 208.925 38.3525 207.953 36.6261 206.224C34.8997 204.494 33.9285 202.15 33.9258 199.705V42.8463C33.9285 40.4009 34.8997 38.0565 36.6261 36.3274C38.3525 34.5983 40.6933 33.6256 43.1348 33.6229H180.18C182.622 33.6256 184.962 34.5983 186.689 36.3274C188.415 38.0565 189.386 40.4009 189.389 42.8463V199.705C189.386 202.15 188.415 204.494 186.689 206.224C184.962 207.953 182.622 208.925 180.18 208.928Z" fill="#E6E6E6"/>
<path d="M173.776 201.241H49.5385C47.3706 201.238 45.2923 200.375 43.7594 198.84C42.2265 197.304 41.3643 195.223 41.3618 193.052V49.4994C41.3643 47.3282 42.2265 45.2467 43.7594 43.7114C45.2923 42.1761 47.3706 41.3125 49.5385 41.3101H173.776C175.944 41.3125 178.022 42.1761 179.555 43.7114C181.088 45.2467 181.95 47.3282 181.953 49.4994V193.052C181.95 195.223 181.088 197.304 179.555 198.84C178.022 200.375 175.944 201.238 173.776 201.241Z" fill="white"/>
<path d="M168.834 61.7415H106.159C105.891 61.7419 105.624 61.6892 105.376 61.5865C105.128 61.4838 104.902 61.3331 104.712 61.143C104.522 60.9528 104.371 60.727 104.268 60.4784C104.165 60.2299 104.112 59.9634 104.112 59.6943C104.112 59.4253 104.165 59.1588 104.268 58.9102C104.371 58.6617 104.522 58.4359 104.712 58.2457C104.902 58.0556 105.128 57.9049 105.376 57.8022C105.624 57.6994 105.891 57.6468 106.159 57.6472H168.834C169.102 57.6468 169.368 57.6994 169.617 57.8022C169.865 57.9049 170.091 58.0556 170.281 58.2457C170.471 58.4359 170.622 58.6617 170.725 58.9102C170.828 59.1588 170.88 59.4253 170.88 59.6943C170.88 59.9634 170.828 60.2299 170.725 60.4784C170.622 60.727 170.471 60.9528 170.281 61.143C170.091 61.3331 169.865 61.4838 169.617 61.5865C169.368 61.6892 169.102 61.7419 168.834 61.7415Z" fill="#E4E4E4"/>
<path d="M168.834 69.831H106.159C105.617 69.831 105.097 69.6153 104.714 69.2313C104.331 68.8474 104.115 68.3267 104.115 67.7837C104.115 67.2407 104.331 66.72 104.714 66.336C105.097 65.9521 105.617 65.7364 106.159 65.7364H168.834C169.376 65.7364 169.896 65.9521 170.279 66.336C170.662 66.72 170.878 67.2407 170.878 67.7837C170.878 68.3267 170.662 68.8474 170.279 69.2313C169.896 69.6153 169.376 69.831 168.834 69.831Z" fill="#E4E4E4"/>
<path d="M133.327 77.9204H106.159C105.617 77.9204 105.097 77.7047 104.714 77.3208C104.331 76.9369 104.115 76.4161 104.115 75.8732C104.115 75.3302 104.331 74.8094 104.714 74.4255C105.097 74.0416 105.617 73.8259 106.159 73.8259H133.327C133.869 73.8259 134.389 74.0416 134.773 74.4255C135.156 74.8094 135.371 75.3302 135.371 75.8732C135.371 76.4161 135.156 76.9369 134.773 77.3208C134.389 77.7047 133.869 77.9204 133.327 77.9204Z" fill="#E4E4E4"/>
<path d="M161.276 110.593H62.3326C62.0639 110.593 61.7978 110.54 61.5495 110.438C61.3011 110.335 61.0755 110.184 60.8854 109.994C60.6952 109.804 60.5444 109.578 60.4415 109.33C60.3386 109.081 60.2856 108.815 60.2856 108.545C60.2856 108.276 60.3386 108.01 60.4415 107.761C60.5444 107.513 60.6952 107.287 60.8854 107.097C61.0755 106.907 61.3011 106.756 61.5495 106.653C61.7978 106.551 62.0639 106.498 62.3326 106.498H161.276C161.544 106.498 161.811 106.551 162.059 106.653C162.307 106.756 162.533 106.907 162.723 107.097C162.913 107.287 163.064 107.513 163.167 107.761C163.27 108.01 163.323 108.276 163.323 108.545C163.323 108.815 163.27 109.081 163.167 109.33C163.064 109.578 162.913 109.804 162.723 109.994C162.533 110.184 162.307 110.335 162.059 110.438C161.811 110.54 161.544 110.593 161.276 110.593Z" fill="#E4E4E4"/>
<path d="M161.276 118.682H62.3327C61.7906 118.682 61.2706 118.466 60.8873 118.082C60.5039 117.698 60.2886 117.178 60.2886 116.635C60.2886 116.092 60.5039 115.571 60.8873 115.187C61.2706 114.803 61.7906 114.587 62.3327 114.587H161.276C161.818 114.587 162.338 114.803 162.721 115.187C163.105 115.571 163.32 116.092 163.32 116.635C163.32 117.178 163.105 117.698 162.721 118.082C162.338 118.466 161.818 118.682 161.276 118.682Z" fill="#E4E4E4"/>
<path d="M161.276 137.045H62.3326C61.7905 137.045 61.2706 136.829 60.8872 136.445C60.5039 136.061 60.2886 135.541 60.2886 134.998C60.2886 134.455 60.5039 133.934 60.8872 133.55C61.2706 133.166 61.7905 132.95 62.3326 132.95H161.276C161.818 132.95 162.338 133.166 162.721 133.55C163.104 133.934 163.32 134.455 163.32 134.998C163.32 135.541 163.104 136.061 162.721 136.445C162.338 136.829 161.818 137.045 161.276 137.045Z" fill="#E4E4E4"/>
<path d="M161.276 145.134H62.3327C61.7906 145.134 61.2706 144.919 60.8873 144.535C60.5039 144.151 60.2886 143.63 60.2886 143.087C60.2886 142.544 60.5039 142.023 60.8873 141.639C61.2706 141.255 61.7906 141.04 62.3327 141.04H161.276C161.818 141.04 162.338 141.255 162.721 141.639C163.105 142.023 163.32 142.544 163.32 143.087C163.32 143.63 163.105 144.151 162.721 144.535C162.338 144.919 161.818 145.134 161.276 145.134Z" fill="#E4E4E4"/>
<path d="M161.276 163.497H62.3326C61.7905 163.497 61.2706 163.281 60.8872 162.897C60.5039 162.513 60.2886 161.993 60.2886 161.45C60.2886 160.907 60.5039 160.386 60.8872 160.002C61.2706 159.618 61.7905 159.403 62.3326 159.403H161.276C161.818 159.403 162.338 159.618 162.721 160.002C163.104 160.386 163.32 160.907 163.32 161.45C163.32 161.993 163.104 162.513 162.721 162.897C162.338 163.281 161.818 163.497 161.276 163.497Z" fill="#E4E4E4"/>
<path d="M161.276 171.586H62.3327C61.7906 171.586 61.2706 171.371 60.8873 170.987C60.5039 170.603 60.2886 170.082 60.2886 169.539C60.2886 168.996 60.5039 168.475 60.8873 168.092C61.2706 167.708 61.7906 167.492 62.3327 167.492H161.276C161.818 167.492 162.338 167.708 162.721 168.092C163.105 168.475 163.32 168.996 163.32 169.539C163.32 170.082 163.105 170.603 162.721 170.987C162.338 171.371 161.818 171.586 161.276 171.586Z" fill="#E4E4E4"/>
<path d="M161.258 193.994H134.091C133.548 193.994 133.028 193.778 132.645 193.394C132.262 193.01 132.046 192.49 132.046 191.947C132.046 191.404 132.262 190.883 132.645 190.499C133.028 190.115 133.548 189.899 134.091 189.899H161.258C161.8 189.899 162.32 190.115 162.704 190.499C163.087 190.883 163.302 191.404 163.302 191.947C163.302 192.49 163.087 193.01 162.704 193.394C162.32 193.778 161.8 193.994 161.258 193.994Z" fill="#7A8AF4"/>
<path d="M88.8101 68.0234C88.8157 72.42 87.3296 76.688 84.5955 80.1276C83.7111 81.2472 82.7043 82.264 81.5938 83.1589C78.5634 85.621 74.8608 87.1084 70.9716 87.4261C70.4422 87.472 69.9084 87.4929 69.3706 87.4929C68.3049 87.4931 67.2411 87.4052 66.1898 87.2299C65.819 87.1714 65.4562 87.1004 65.0935 87.0169C64.4622 86.8762 63.8387 86.702 63.2258 86.495C61.2382 85.8325 59.3713 84.851 57.6978 83.589C57.2519 83.255 56.8226 82.9001 56.4057 82.5243C55.8958 82.0714 55.4128 81.589 54.959 81.0796C54.8381 80.946 54.7172 80.8083 54.6005 80.6705C52.5664 78.286 51.1377 75.4445 50.436 72.388C49.7344 69.3315 49.7806 66.1504 50.5707 63.1156C51.3608 60.0808 52.8714 57.2821 54.9739 54.9579C57.0765 52.6337 59.7086 50.8528 62.6463 49.7667C65.584 48.6807 68.7402 48.3217 71.8462 48.7204C74.9523 49.119 77.9161 50.2635 80.4854 52.0563C83.0548 53.8492 85.1535 56.2373 86.6029 59.0174C88.0523 61.7975 88.8096 64.8872 88.8101 68.0234Z" fill="#E4E4E4"/>
<path d="M68.6942 74.6679C73.0938 74.6679 76.6604 71.0958 76.6604 66.6894C76.6604 62.2829 73.0938 58.7108 68.6942 58.7108C64.2946 58.7108 60.728 62.2829 60.728 66.6894C60.728 71.0958 64.2946 74.6679 68.6942 74.6679Z" fill="#9E616A"/>
<path d="M77.5625 62.8001C77.5986 62.0872 77.3977 61.3824 76.9913 60.796L76.7037 60.3868C75.6655 58.3827 73.9522 56.5789 72.6975 55.2595C71.7552 54.27 70.8131 53.794 69.9083 53.8399C69.2499 53.887 68.6369 54.1932 68.2033 54.6917C67.0119 54.6188 65.8252 54.8956 64.7885 55.4882C63.7518 56.0807 62.9103 56.9633 62.3669 58.0277C58.5525 60.0444 59.6906 65.9984 59.703 66.061L60.6245 67.6101L60.7287 67.4138C60.7287 67.4097 60.7411 67.393 60.7578 67.3596C60.9372 67.0381 61.9126 65.251 62.5713 64.1195C62.8117 63.7336 63.1315 63.4034 63.5093 63.1509C64.1263 62.7287 64.8354 62.4609 65.5771 62.3701L67.6031 62.107L66.836 63.2594H72.3555L74.4774 63.0089C74.6901 63.8815 76.3743 67.2677 76.5784 67.6769L76.5951 67.7103L76.7077 67.9399L77.3373 66.2072C77.7049 65.11 77.7824 63.9362 77.5625 62.8001Z" fill="#2F2E41"/>
<path d="M57.7566 83.6307C58.0985 83.1798 59.8702 81.0754 63.9473 79.9606L66.1068 77.5515L74.7655 76.1694L79.172 78.6078L84.5956 80.1276C83.7113 81.2472 82.7045 82.264 81.594 83.1589C78.5636 85.621 74.861 87.1084 70.9718 87.4261C70.4424 87.472 69.9088 87.4929 69.371 87.4929C68.3053 87.4931 67.2414 87.4051 66.1902 87.2298C65.8191 87.1714 65.4565 87.1004 65.0938 87.0169C64.4624 86.8762 63.839 86.702 63.2261 86.495C61.261 85.8411 59.4141 84.8739 57.7566 83.6307C57.7358 83.6182 57.7191 83.6015 57.6982 83.589L57.7566 83.6307Z" fill="#7A8AF4"/>
<path d="M222.078 9.76548H1.237C0.909039 9.76513 0.594611 9.63448 0.362706 9.40222C0.130801 9.16995 0.000357524 8.85504 0 8.52656V1.23892C0.000357524 0.910445 0.130801 0.59553 0.362706 0.363266C0.594611 0.131001 0.909039 0.000358079 1.237 0H222.078C222.406 0.000358079 222.72 0.131001 222.952 0.363266C223.184 0.59553 223.314 0.910445 223.315 1.23892V8.52656C223.314 8.85504 223.184 9.16995 222.952 9.40222C222.72 9.63448 222.406 9.76513 222.078 9.76548Z" fill="#7A8AF4"/>
<path d="M7.17859 6.28622C8.14853 6.28622 8.93482 5.49871 8.93482 4.52726C8.93482 3.55582 8.14853 2.76831 7.17859 2.76831C6.20865 2.76831 5.42236 3.55582 5.42236 4.52726C5.42236 5.49871 6.20865 6.28622 7.17859 6.28622Z" fill="white"/>
<path d="M13.8451 6.28622C14.815 6.28622 15.6013 5.49871 15.6013 4.52726C15.6013 3.55582 14.815 2.76831 13.8451 2.76831C12.8752 2.76831 12.0889 3.55582 12.0889 4.52726C12.0889 5.49871 12.8752 6.28622 13.8451 6.28622Z" fill="white"/>
<path d="M20.5111 6.28622C21.481 6.28622 22.2673 5.49871 22.2673 4.52726C22.2673 3.55582 21.481 2.76831 20.5111 2.76831C19.5412 2.76831 18.7549 3.55582 18.7549 4.52726C18.7549 5.49871 19.5412 6.28622 20.5111 6.28622Z" fill="white"/>
<path d="M215.547 3.31661H207.87C207.72 3.31533 207.577 3.25476 207.471 3.1481C207.366 3.04144 207.307 2.89732 207.307 2.74713C207.307 2.59693 207.366 2.45281 207.471 2.34615C207.577 2.23949 207.72 2.17892 207.87 2.17763H215.547C215.622 2.17699 215.696 2.19125 215.766 2.21958C215.835 2.24791 215.899 2.28975 215.952 2.3427C216.005 2.39565 216.047 2.45864 216.076 2.52805C216.105 2.59747 216.12 2.67193 216.12 2.74713C216.12 2.82233 216.105 2.89678 216.076 2.96619C216.047 3.03561 216.005 3.09861 215.952 3.15155C215.899 3.2045 215.835 3.24634 215.766 3.27467C215.696 3.30301 215.622 3.31726 215.547 3.31661Z" fill="white"/>
<path d="M215.547 5.4522H207.87C207.72 5.4522 207.575 5.3922 207.468 5.2854C207.362 5.1786 207.302 5.03375 207.302 4.88271C207.302 4.73167 207.362 4.58682 207.468 4.48002C207.575 4.37322 207.72 4.31322 207.87 4.31322H215.547C215.622 4.31258 215.696 4.32683 215.766 4.35516C215.835 4.38349 215.899 4.42534 215.952 4.47829C216.005 4.53123 216.047 4.59423 216.076 4.66364C216.105 4.73306 216.12 4.80751 216.12 4.88271C216.12 4.95791 216.105 5.03237 216.076 5.10178C216.047 5.1712 216.005 5.23419 215.952 5.28714C215.899 5.34009 215.835 5.38193 215.766 5.41026C215.696 5.43859 215.622 5.45285 215.547 5.4522Z" fill="white"/>
<path d="M215.546 7.58781H207.87C207.72 7.58659 207.577 7.52605 207.471 7.41938C207.365 7.31271 207.306 7.16856 207.306 7.01831C207.306 6.86807 207.365 6.72392 207.471 6.61725C207.577 6.51058 207.72 6.45004 207.87 6.44882H215.546C215.696 6.45004 215.84 6.51058 215.945 6.61725C216.051 6.72392 216.11 6.86807 216.11 7.01831C216.11 7.16856 216.051 7.31271 215.945 7.41938C215.84 7.52605 215.696 7.58659 215.546 7.58781Z" fill="white"/>
<path d="M276.176 195.977C275.823 195.592 275.558 195.134 275.4 194.636C275.243 194.137 275.197 193.61 275.264 193.092C275.332 192.573 275.513 192.076 275.793 191.635C276.074 191.194 276.448 190.82 276.888 190.539L273.961 178.172L280.156 180.438L281.985 191.835C282.407 192.608 282.531 193.508 282.335 194.366C282.138 195.224 281.634 195.98 280.917 196.491C280.201 197.001 279.323 197.231 278.449 197.136C277.575 197.042 276.767 196.629 276.176 195.977Z" fill="#9E616A"/>
<path d="M261.28 144.15L263.766 150.553C263.766 150.553 262.701 156.955 264.476 158.378C266.252 159.8 265.542 159.8 265.542 160.867C265.603 161.633 265.824 162.377 266.191 163.051C266.559 163.725 267.063 164.314 267.673 164.78C269.093 165.847 275.486 187.544 275.486 187.544H281.878C281.671 185.89 281.671 184.217 281.878 182.564C282.233 180.074 280.813 173.672 280.102 172.605C279.392 171.538 280.102 170.115 280.102 167.981C280.102 165.847 278.682 164.78 278.682 161.223C278.682 157.666 274.42 129.923 274.775 126.722C275.13 123.521 271.224 120.675 271.224 120.675H267.673L261.28 144.15Z" fill="#E4E4E4"/>
<path d="M277.628 279.421H272.904L270.657 261.17L277.629 261.171L277.628 279.421Z" fill="#9E616A"/>
<path d="M278.833 284.008L263.6 284.007V283.814C263.6 282.239 264.224 280.729 265.336 279.615C266.448 278.502 267.956 277.876 269.529 277.876L272.312 275.762L277.504 277.876L278.833 277.876L278.833 284.008Z" fill="#2F2E41"/>
<path d="M234.409 279.286L229.973 277.66L234.122 259.747L240.67 262.146L234.409 279.286Z" fill="#9E616A"/>
<path d="M233.968 284.008L219.662 278.766L219.728 278.585C220.268 277.106 221.373 275.902 222.799 275.239C224.225 274.576 225.856 274.507 227.333 275.048L230.672 274.02L234.822 277.792L236.071 278.25L233.968 284.008Z" fill="#2F2E41"/>
<path d="M267.219 194.078C267.219 194.078 264.023 209.728 269.35 208.305C274.677 206.882 272.546 193.366 272.546 193.366L267.219 194.078Z" fill="#A0616A"/>
<path d="M243.781 181.095C243.781 181.095 239.52 186.786 239.52 189.987C239.52 193.188 238.099 221.643 238.099 221.643C238.099 221.643 227.316 264.016 229.447 266.15C231.578 268.284 239.036 270.418 240.101 269.351C241.167 268.284 250.529 224.489 250.529 224.489L259.407 200.658L267.575 234.803L268.285 271.083C268.285 271.083 277.164 273.217 278.939 271.794C280.715 270.372 281.07 235.87 278.939 223.777C276.809 211.684 279.294 183.941 279.294 183.941L243.781 181.095Z" fill="#2F2E41"/>
<path d="M258.023 105.157C263.907 105.157 268.677 100.379 268.677 94.4862C268.677 88.5931 263.907 83.8157 258.023 83.8157C252.139 83.8157 247.369 88.5931 247.369 94.4862C247.369 100.379 252.139 105.157 258.023 105.157Z" fill="#9E616A"/>
<path d="M244.491 120.629C244.491 120.629 247.559 116.051 253.596 110.005C256.792 108.938 262.33 109.559 264.25 110.005C273.128 121.742 273.687 120.962 275.998 127.52C276.597 129.221 276.897 130.855 276.631 132.189C275.565 137.524 278.939 180.74 279.294 182.162C279.649 183.585 282.135 185.363 279.649 185.363C277.163 185.363 239.519 183.941 240.23 182.874C240.94 181.807 244.491 120.629 244.491 120.629Z" fill="#E4E4E4"/>
<path opacity="0.1" d="M242.865 182.404L253.547 158.865L248.206 183.899L242.865 182.404Z" fill="black"/>
<path d="M254.8 104.372C255.797 103.628 256.716 102.784 257.541 101.852C258.369 100.912 258.887 99.7392 259.025 98.4932C259.086 97.8719 258.989 97.2454 258.742 96.672C258.496 96.0986 258.109 95.5969 257.617 95.2136C256.602 94.4957 255.055 94.5374 254.213 95.4522C254.619 94.1348 254.991 92.5809 254.167 91.4761C253.417 90.4707 252.018 90.2999 250.809 89.9684C248.478 89.3184 246.473 87.8221 245.184 85.7712L247.236 86.1966L247.007 84.7311L248.708 85.3235L248.723 83.2824L250.478 84.2661C252.627 82.2928 255.46 81.2359 258.374 81.3197C259.844 81.3442 261.284 81.7402 262.561 82.4708C263.84 83.2118 264.808 84.3908 265.288 85.7906C266.192 84.8513 267.803 84.9239 268.879 85.658C269.956 86.3922 270.588 87.6203 271.022 88.85C271.882 91.2082 272.082 93.7569 271.601 96.2208C271.106 98.6904 269.777 100.914 267.838 102.519C266.057 103.88 263.937 104.724 261.71 104.96C259.491 105.19 257.251 105.095 255.06 104.675" fill="#2F2E41"/>
<path d="M239.539 195.931C239.893 195.546 240.157 195.088 240.315 194.59C240.472 194.091 240.519 193.564 240.451 193.046C240.383 192.527 240.202 192.03 239.922 191.589C239.641 191.148 239.268 190.774 238.827 190.493L241.754 178.126L235.56 180.392L233.73 191.789C233.308 192.562 233.184 193.462 233.381 194.32C233.578 195.178 234.082 195.934 234.798 196.445C235.514 196.955 236.392 197.185 237.266 197.09C238.14 196.996 238.949 196.583 239.539 195.931Z" fill="#9E616A"/>
<path d="M248.043 120.629H244.491C244.491 120.629 240.585 123.474 240.94 126.676C241.295 129.877 237.033 157.62 237.033 161.177C237.033 164.734 235.613 165.801 235.613 167.935C235.613 170.069 236.323 171.492 235.613 172.559C234.903 173.626 233.482 180.028 233.837 182.518C234.044 184.171 234.044 185.844 233.837 187.497H240.23C240.23 187.497 246.622 165.801 248.043 164.734C248.652 164.268 249.157 163.679 249.524 163.005C249.891 162.331 250.112 161.587 250.173 160.821C250.173 159.754 249.463 159.754 251.239 158.331C253.014 156.909 251.949 150.506 251.949 150.506L254.435 144.104L248.043 120.629Z" fill="#E4E4E4"/>
<path d="M348.504 285H153.696C153.631 285 153.566 284.988 153.506 284.963C153.445 284.938 153.39 284.901 153.344 284.855C153.298 284.809 153.261 284.754 153.236 284.693C153.211 284.633 153.198 284.568 153.198 284.503C153.198 284.437 153.211 284.373 153.236 284.312C153.261 284.252 153.298 284.197 153.344 284.151C153.39 284.105 153.445 284.068 153.506 284.043C153.566 284.018 153.631 284.006 153.696 284.006H348.504C348.569 284.006 348.634 284.018 348.694 284.043C348.754 284.068 348.809 284.105 348.855 284.151C348.902 284.197 348.938 284.252 348.963 284.312C348.988 284.373 349.001 284.437 349.001 284.503C349.001 284.568 348.988 284.633 348.963 284.693C348.938 284.754 348.902 284.809 348.855 284.855C348.809 284.901 348.754 284.938 348.694 284.963C348.634 284.988 348.569 285 348.504 285Z" fill="#CACACA"/>
</g>
<defs>
<clipPath id="clip0_386_1297">
<rect width="349" height="285" fill="white"/>
</clipPath>
</defs>
</svg>
