<svg width="254" height="169" viewBox="0 0 254 169" fill="none" xmlns="http://www.w3.org/2000/svg">
<g clip-path="url(#clip0_386_1893)">
<path d="M98.2024 15.2681H67.3861C66.3289 15.2681 65.4688 14.408 65.4688 13.3508C65.4688 12.2937 66.3289 11.4336 67.3861 11.4336H98.2024C99.2596 11.4336 100.12 12.2937 100.12 13.3508C100.12 14.408 99.2596 15.2681 98.2024 15.2681Z" fill="#E6E7E8"/>
<path d="M122.252 21.7572H67.3861C66.3289 21.7572 65.4688 20.8971 65.4688 19.84C65.4688 18.7828 66.3289 17.9227 67.3861 17.9227H122.252C123.309 17.9227 124.169 18.7828 124.169 19.84C124.169 20.8971 123.309 21.7572 122.252 21.7572Z" fill="#E6E7E8"/>
<path d="M122.252 28.1879H67.3861C66.3289 28.1879 65.4688 27.3278 65.4688 26.2707C65.4688 25.2136 66.3289 24.3535 67.3861 24.3535H122.252C123.309 24.3535 124.169 25.2136 124.169 26.2707C124.169 27.3278 123.309 28.1879 122.252 28.1879Z" fill="#E6E7E8"/>
<path d="M128.063 61.5599V60.6412C117.459 60.6412 108.198 51.9791 105.736 39.9132L109.732 40.9411C107.799 39.1102 105.847 36.0452 104.636 33.5402C103.92 36.2294 102.584 39.6088 101.034 41.7727L104.814 39.9819C107.328 52.535 116.987 61.5599 128.063 61.5599Z" fill="#3F3D56"/>
<path d="M124.052 26.4027C124.052 27.4158 123.228 28.2401 122.215 28.2401H98.3277C97.3145 28.2401 96.4902 27.4158 96.4902 26.4027C96.4902 25.3896 97.3145 24.5654 98.3277 24.5654H122.215C123.228 24.5654 124.052 25.3896 124.052 26.4027Z" fill="#7A8AF4"/>
<path d="M16.4931 128.751C16.1295 127.485 15.5068 126.405 14.7654 125.635L12.0719 113.357L6.20068 114.795L9.56515 127.095C9.3439 128.136 9.38817 129.378 9.7518 130.644C10.5825 133.537 12.765 135.458 14.6266 134.935C16.4882 134.412 17.3238 131.644 16.4931 128.751Z" fill="#FFB6B6"/>
<path d="M15.6806 48.2105C15.6806 48.2105 9.33916 47.9916 5.66426 52.1257C1.45395 57.2686 -1.42398 77.4201 0.736495 78.7771L6.58999 120.34L14.937 119.194L12.7948 69.3237L15.6806 48.2105Z" fill="#7A8AF4"/>
<path d="M58.4909 118.27L56.9716 168.998H35.1519L34.27 149.444L30.3929 168.998H7.00684L9.92377 135.384L12.9372 128.315L14.9768 123.524L58.4909 118.27Z" fill="#2F2E41"/>
<path d="M41.1602 39.9244L26.0012 39.0057L20.9482 45.4365C16.5842 46.3708 12.6424 47.5771 9.92355 49.5705C10.574 68.8287 9.14509 93.8698 14.9765 98.7197L9.79834 135.266C9.79834 135.266 11.8866 133.477 15.3749 134.109C16.58 134.327 18.0347 137.041 19.5155 137.206C30.8938 138.47 49.3453 137.17 58.4907 118.27L54.941 90.911L55.8598 50.9485C52.9877 48.6784 49.4169 47.203 45.2944 46.3552L41.1602 39.9244Z" fill="#7A8AF4"/>
<path d="M70.3436 28.7446C70.508 30.3371 70.2992 31.8348 69.8182 33.0355L72.3434 48.1073L65.1361 49.099L63.3506 33.7034C62.6343 32.6263 62.1238 31.203 61.9593 29.6105C61.5835 25.9724 63.1558 22.8294 65.4711 22.5903C67.7863 22.3512 69.9678 25.1066 70.3436 28.7446Z" fill="#FFB6B6"/>
<path d="M46.3818 52.1C45.6272 53.2133 45.8374 54.4648 45.6572 55.9683C44.8924 62.3515 57.1249 81.2136 65.5891 83.3853C66.6998 83.6703 67.3325 84.8683 68.4536 85.1093C71.7745 85.823 74.8666 83.1872 74.6873 79.7953L72.3882 36.2922L62.7291 39.5866L63.3473 62.1726C63.2858 57.4935 58.9891 52.7292 55.7345 50.7476C55.7345 50.7476 49.1422 48.0273 46.3818 52.1Z" fill="#7A8AF4"/>
<path d="M35.1539 37.817C42.5283 37.817 48.5065 31.8391 48.5065 24.4651C48.5065 17.091 42.5283 11.1132 35.1539 11.1132C27.7794 11.1132 21.8013 17.091 21.8013 24.4651C21.8013 31.8391 27.7794 37.817 35.1539 37.817Z" fill="#FFB6B6"/>
<path d="M47.5913 14.6608C47.4765 14.6884 49.349 12.8633 49.4288 12.8234C51.2662 11.9047 49.3782 20.8848 48.0507 20.6322C44.7846 20.012 43.3744 18.781 42.1065 21.854C41.7528 22.7084 41.5323 23.673 40.8433 24.2839C39.897 25.1153 38.326 25.0464 37.5543 26.0386C36.9341 26.8378 37.1133 28.0137 37.5726 28.914C38.032 29.8189 38.7302 30.586 39.1482 31.5093C39.6168 32.5474 37.6186 35.85 36.856 37.7058V37.7104L36.8515 37.7212C36.6489 38.208 36.1674 36.8058 35.659 36.6658C35.0507 36.4983 34.1546 37.9346 33.1857 37.6736C33.1811 37.6736 33.1765 37.669 33.1719 37.669C32.2486 37.4118 31.2196 37.1362 30.1999 36.8606H30.1953C27.3243 36.0797 26.5985 37.2005 26.4607 37.1684L24.6783 35.3034C24.0667 34.8581 24.1358 33.4204 23.7045 33.0343C23.3518 32.7185 22.4724 33.4482 22.2132 33.1447C20.9425 31.6564 20.6501 30.1676 19.901 27.2283C19.2165 24.5411 17.7971 16.4981 20.714 16.1352C23.4656 15.7907 21.4536 11.9599 24.2236 12.1023C24.0582 11.4041 24.366 10.6553 24.8667 10.1409C25.3628 9.62182 26.0243 9.30028 26.6903 9.02469C29.9748 7.68343 29.4281 6.53051 32.8917 7.31136C33.2362 6.82906 37.6541 5.5717 38.2789 5.73248C38.3248 5.74165 37.3154 7.70182 39.7822 7.31136C39.6903 7.87637 41.035 6.65116 41.1602 8.68938C43.7912 7.1105 45.2072 10.8896 45.2945 11.4454C45.4093 12.139 44.362 11.7853 45.0602 11.891C45.4736 11.9553 46.1811 12.7959 46.1122 13.2138C46.4107 12.8096 46.7093 12.41 47.0125 12.0058C47.0676 12.0104 47.1181 12.0196 47.1733 12.0287C48.5697 12.2952 46.9688 16.8601 47.0263 15.4371C47.1319 12.8234 48.9832 14.353 47.5913 14.6608Z" fill="#2F2E41"/>
<path d="M217.908 11.9234C217.414 15.9781 216.875 20.0273 216.291 24.0699C216.053 25.7118 215.802 27.3746 215.142 28.8964C214.691 29.9352 214.059 30.8837 213.431 31.826C212.689 32.9395 211.934 34.0671 210.926 34.9473C209.918 35.8275 208.609 36.4455 207.274 36.342C210.814 33.9592 213.194 29.929 213.57 25.6784C213.746 23.6804 213.504 21.672 213.457 19.6667C213.411 17.6614 213.579 15.5864 214.504 13.8067C215.429 12.027 217.257 10.6024 219.262 10.653L217.908 11.9234Z" fill="#2F2E41"/>
<path d="M182.031 98.4044C179.15 100.74 175.61 101.148 174.123 99.3155C172.637 97.4826 173.766 94.103 176.647 91.7669C177.908 90.7443 179.295 90.0913 180.581 89.8338L192.91 80.0883L197.361 85.9712L184.734 94.954C184.217 96.1592 183.291 97.3818 182.031 98.4044Z" fill="#A0616A"/>
<path d="M184.359 85.1742L202.731 67.7432L204.568 66.3652C204.568 66.3652 215.114 56.0914 217.845 55.8561C219.001 55.7567 220.158 56.045 221.132 56.678C222.706 57.6987 223.522 59.3788 223.522 61.0722C223.522 62.4872 222.952 63.9089 221.785 64.9561L204.966 80.0542L197.811 86.4765L188.913 94.4663L188.008 92.6238L184.949 86.3804L184.359 85.1742Z" fill="#7A8AF4"/>
<path d="M223.641 73.3776L205.247 79.0112C208.327 79.8787 209.616 98.6431 206.75 99.226C206.75 99.226 237.236 101.394 235.572 99.226C233.544 96.5829 236.264 79.0189 237.561 79.0112L223.641 73.3776Z" fill="#A0616A"/>
<path d="M248.118 169L246.51 149.598C246.51 142.657 246.06 136.387 245.339 130.797C242.45 108.358 235.205 96.8563 235.205 96.8563H208.103C208.066 96.8977 208.03 96.9298 207.993 96.9712L207.988 96.9758C201.594 103.696 198.268 120.595 196.789 130.797C196.086 135.652 195.801 138.991 195.801 138.991L193.151 162.546L195.066 169H210.836L210.588 167.617L220.736 130.797L220.86 130.347L220.97 130.797L230.378 169L248.118 169Z" fill="#2F2E41"/>
<path d="M208.659 62.1849L214.386 50.6247L219.211 42.2261L223.113 38.2494H233.793L234.787 42.2261L240.753 45.54L242.863 62.1094L235.345 98.0595C226.397 90.769 207.955 88.7498 207.955 88.7498L204.966 80.0542L202.991 69.579L202.752 68.3263L208.659 62.1849Z" fill="#7A8AF4"/>
<path d="M207.971 83.0968C204.264 82.9916 201.313 80.9939 201.38 78.6349C201.447 76.2759 204.507 74.4487 208.214 74.5539C209.837 74.6 211.314 75.0087 212.458 75.6516L228.161 76.2944L227.702 83.6566L212.271 82.2415C211.093 82.8185 209.594 83.1428 207.971 83.0968Z" fill="#A0616A"/>
<path d="M228.053 57.9675L242.866 72.6729L217.064 75.3149L211.068 83.7485L247.031 84.9408C250.276 86.0963 253.732 83.854 253.999 80.4202C254.089 79.2608 246.701 49.8411 242.228 47.1099C236.986 43.9087 228.053 57.9675 228.053 57.9675Z" fill="#7A8AF4"/>
<path d="M238.343 23.8202C238.45 17.1407 233.123 11.6387 226.443 11.531C219.763 11.4233 214.261 16.7507 214.153 23.4301C214.045 30.1096 219.373 35.6116 226.053 35.7193C232.733 35.827 238.235 30.4996 238.343 23.8202Z" fill="#A0616A"/>
<path d="M252.801 61.3125C252.498 62.4608 250.137 63.0533 249.586 64.5278C247.831 65.5292 248.782 57.3484 248.074 56.811C247.528 56.4021 247.381 57.3897 247.257 56.5399C246.788 53.3521 243.724 54.0641 241.455 53.5496C241.198 53.049 241 52.5621 240.872 52.0889C240.642 51.2346 239.595 50.936 238.974 51.5653C238.694 51.3173 238.492 50.4399 238.295 49.5626C238.152 48.9241 238.01 48.2856 237.844 47.8814L236.264 44.3169L236.774 46.9719C235.74 46.5998 234.698 46.9857 234.096 45.7087C233.324 44.0689 233.016 42.1489 233.577 40.4263C234.087 38.8646 234.946 35.7365 235.915 33.1458C234.817 33.9405 233.499 34.5193 231.969 34.8086C232.511 33.7797 233.062 32.7324 233.292 31.5887C233.517 30.4449 233.379 29.1725 232.654 28.2631C232.056 27.5143 231.174 27.7027 230.43 27.1009C229.851 26.6324 229.351 25.4336 229.002 24.7767C230.49 29.7238 231.615 34.9786 229.723 39.7006C228.414 42.9711 225.657 45.6306 222.35 46.8387C224.109 45.5801 225.827 44.2388 227.146 42.5301C228.556 40.6974 229.475 38.3823 229.195 36.0856C228.754 32.4798 222.065 21.0744 221.243 18.8328C221.693 21.0239 221.519 22.7326 220.333 23.6743C220.026 20.4957 216.562 20.785 214.674 19.5127C214.674 19.5127 213.213 11.2584 216.64 11.2078C218.294 11.1849 220.026 7.29886 221.528 6.60525C223.926 5.49826 225.396 6.25158 228.055 6.33425C230.71 6.41233 233.26 7.55608 234.881 9.65526C235.731 10.7531 236.044 9.88033 237.321 10.5647C238.533 11.2124 239.351 10.6107 240.725 10.652C243.476 10.7255 246.145 12.1954 247.688 14.4691C249.232 16.7474 250.183 16.5361 249.572 20.0593C249.563 20.1006 249.563 20.1833 249.572 20.3073C249.907 25.8561 249.048 31.4187 246.848 36.5266C246.168 38.0975 249.493 39.7189 249.489 41.6803C249.484 43.9586 245.814 46.0349 246.154 47.0087C247.128 51.6985 252.599 50.6558 251.308 58.5059C251.203 59.1444 253.003 60.5453 252.801 61.3125Z" fill="#2F2E41"/>
<path d="M219.29 46.9493C219.391 46.9172 219.492 46.8804 219.593 46.8391C219.464 46.9309 219.34 47.0182 219.211 47.1101L219.29 46.9493Z" fill="#2F2E41"/>
<path d="M236.328 8.24983C235.012 8.44537 233.675 6.26233 234.423 3.23499C236.051 5.7244 236.883 8.52685 237.014 11.6051L236.136 11.877L236.328 8.24983Z" fill="#7A8AF4"/>
<path d="M243.051 5.42407C242.153 8.60574 237.593 10.7351 236.788 9.62783L236.696 11.5252L236.132 10.8C237.767 8.36804 239.997 6.50245 243.051 5.42407Z" fill="#7A8AF4"/>
<path d="M142.917 91.2217C142.917 90.1646 143.778 89.3045 144.835 89.3045H175.651C176.708 89.3045 177.568 90.1646 177.568 91.2217C177.568 92.2789 176.708 93.139 175.651 93.139H144.835C143.778 93.139 142.917 92.2789 142.917 91.2217Z" fill="#E6E7E8"/>
<path d="M142.917 104.083C142.917 103.026 143.778 102.166 144.835 102.166H175.651C176.708 102.166 177.568 103.026 177.568 104.083C177.568 105.14 176.708 106 175.651 106H144.835C143.778 106 142.917 105.14 142.917 104.083Z" fill="#E6E7E8"/>
<path d="M120.786 99.6281C119.728 99.6281 118.868 98.768 118.868 97.7109C118.868 96.6538 119.728 95.7936 120.786 95.7936H175.651C176.708 95.7936 177.568 96.6538 177.568 97.7109C177.568 98.768 176.708 99.6281 175.651 99.6281H120.786Z" fill="#E6E7E8"/>
<path d="M116.706 81.2785L112.926 79.4878C114.476 81.6516 115.812 85.0311 116.528 87.7203C117.739 85.2153 119.691 82.1503 121.624 80.3194L117.628 81.3473C120.09 69.2814 129.351 60.6193 139.955 60.6193V59.7006C128.879 59.7006 119.22 68.7255 116.706 81.2785Z" fill="#3F3D56"/>
<path d="M134.107 99.663H110.22C109.207 99.663 108.382 98.8388 108.382 97.8257C108.382 96.8126 109.207 95.9883 110.22 95.9883H134.107C135.12 95.9883 135.944 96.8126 135.944 97.8257C135.944 98.8388 135.12 99.663 134.107 99.663Z" fill="#7A8AF4"/>
<path d="M141.083 62.0867C141.719 58.1659 139.057 54.4717 135.136 53.8355C131.215 53.1992 127.52 55.8618 126.884 59.7826C126.248 63.7034 128.91 67.3976 132.831 68.0338C136.752 68.6701 140.447 66.0074 141.083 62.0867Z" fill="#3F3D56"/>
<path d="M94.9377 8.872C97.3878 8.872 99.3739 6.88594 99.3739 4.436C99.3739 1.98606 97.3878 0 94.9377 0C92.4876 0 90.5015 1.98606 90.5015 4.436C90.5015 6.88594 92.4876 8.872 94.9377 8.872Z" fill="#E6E7E8"/>
<path d="M146.846 85.5815C149.296 85.5815 151.282 83.5954 151.282 81.1455C151.282 78.6955 149.296 76.7095 146.846 76.7095C144.396 76.7095 142.41 78.6955 142.41 81.1455C142.41 83.5954 144.396 85.5815 146.846 85.5815Z" fill="#E6E7E8"/>
</g>
<defs>
<clipPath id="clip0_386_1893">
<rect width="254" height="169" fill="white"/>
</clipPath>
</defs>
</svg>
