<svg width="272" height="214" viewBox="0 0 272 214" fill="none" xmlns="http://www.w3.org/2000/svg">
<g clip-path="url(#clip0_386_1831)">
<path d="M66.2402 25.3733L30.9614 29.5319L34.9017 63.0134L70.1805 58.8549L66.2402 25.3733Z" fill="#2F2E41"/>
<path d="M48.2087 44.6736C57.7744 44.6736 65.5288 36.9128 65.5288 27.3393C65.5288 17.7658 57.7744 10.005 48.2087 10.005C38.6431 10.005 30.8887 17.7658 30.8887 27.3393C30.8887 36.9128 38.6431 44.6736 48.2087 44.6736Z" fill="#FFB6B6"/>
<path d="M36.7895 0.453705C25.9961 3.45259 27.0014 7.47928 23.731 10.0166C17.9692 14.4868 16.793 25.573 20.9068 32.3121C22.006 34.1127 24.1567 36.4923 23.5913 39.4021C23.1572 41.6357 21.325 43.1392 20.9799 43.4131C18.1554 45.6544 19.8815 43.1806 18.6901 44.9174C17.3752 46.8344 20.0179 49.0118 18.9415 52.2941C17.9873 55.2041 15.3235 55.282 15.1852 57.0573C14.9471 60.1145 22.4223 65.324 29.5698 64.0025C35.9337 62.826 40.0595 56.8378 41.0536 51.5393C41.7195 47.9899 41.4874 42.0471 38.4043 39.5075C37.9719 39.1514 36.8045 38.303 35.6131 36.7506C34.6703 35.5221 33.429 33.9049 33.8951 32.6327C34.3916 31.2773 36.3052 31.7343 37.3297 30.3762C38.7191 28.5344 36.5078 25.96 36.47 23.0711C36.4061 18.1793 42.5633 11.561 49.9219 11.6103C58.2696 11.6661 62.341 20.2639 62.7683 21.2056C63.654 23.1572 63.872 25.1207 64.3079 29.0477C64.9336 34.6832 65.3256 38.2153 63.9876 42.0466C62.063 47.5572 58.7635 47.3753 58.2997 51.3579C57.5768 57.5673 65.0356 62.8388 65.8867 63.4248C72.1969 67.7686 81.0131 68.2591 82.2029 65.8219C83.2749 63.6256 77.14 61.1289 76.5839 54.7574C76.102 49.236 80.3535 47.0344 78.9439 43.3696C77.3924 39.3356 71.8366 40.9524 68.8888 36.5313C66.1374 32.4046 69.9692 29.4833 68.2426 20.5603C67.8773 18.6727 66.6367 13.278 62.4804 8.27828C60.6493 6.07565 58.7871 3.83549 55.6814 2.90773C52.2048 1.86911 42.4989 -1.13259 36.7895 0.453705Z" fill="#2F2E41"/>
<path d="M31.2817 16.533C32.1716 20.25 38.045 21.4306 40.5137 21.6167C41.5592 21.6955 45.0925 21.9618 48.3493 20.0759C49.5531 19.3788 49.9569 18.8291 51.2473 18.4999C52.9944 18.0542 53.9682 18.6244 56.8649 19.0721C60.086 19.5699 61.6966 19.8188 62.4108 19.0355C63.5784 17.7551 62.1456 14.1855 60.3346 11.8739C56.986 7.59958 51.6806 6.77917 49.2062 6.39645C46.3792 5.95925 40.6424 5.07201 35.8963 8.5826C35.2617 9.05194 30.3776 12.7564 31.2817 16.533Z" fill="#2F2E41"/>
<path d="M266.689 83.329C266.769 82.4503 264.717 81.9672 264.831 81.1993C264.944 80.4342 267.021 80.6475 269.257 79.3179C269.66 79.0782 272.201 77.5673 271.988 76.3788C271.583 74.1262 261.64 75.0137 260.759 71.7291C260.565 71.0083 260.788 70.01 260.262 67.7465C260.053 66.8461 259.872 66.3769 259.482 66.2202C258.928 65.9979 258.437 66.599 257.042 67.4697C254.949 68.7755 254.584 68.3408 253.077 69.5002C251.958 70.3608 251.571 71.0524 251.098 70.8987C250.428 70.6813 250.769 69.1561 250.005 68.7619C249.226 68.3597 247.822 69.4067 246.955 70.3238C245.328 72.0446 245.118 73.8061 244.551 75.4068C243.934 77.1464 242.606 79.5095 239.401 81.8956L210.188 102.044C216.332 98.0182 233.502 87.2188 240.181 83.4219C242.109 82.3258 244.132 81.2626 246.296 81.8316C248.379 82.3793 250.341 84.374 253.687 85.7501C254.078 85.9109 255.171 86.3444 255.68 85.885C256.101 85.5052 255.739 84.8611 256.127 84.5006C256.647 84.0171 257.72 84.7836 259.504 85.0827C260.761 85.2936 261.733 85.1649 262.568 85.0542C262.82 85.0209 266.582 84.4989 266.689 83.329Z" fill="#F2F2F2"/>
<path d="M218.546 70.2114C218.138 69.9184 217.309 70.7872 216.965 70.5098C216.623 70.2334 217.327 69.2747 217.32 67.7928C217.319 67.5255 217.311 65.8414 216.666 65.6033C215.445 65.152 213.011 70.2925 211.146 69.7774C210.737 69.6644 210.312 69.267 209.05 68.8723C208.548 68.7152 208.266 68.6687 208.076 68.8152C207.808 69.0229 207.961 69.4376 207.985 70.3743C208.022 71.779 207.703 71.8329 207.837 72.9078C207.936 73.7058 208.164 74.0952 207.952 74.2835C207.652 74.5499 207.002 73.9422 206.588 74.2035C206.166 74.4702 206.275 75.4618 206.474 76.1524C206.849 77.4484 207.652 78.0595 208.273 78.8002C208.948 79.6051 209.724 80.9393 209.97 83.2019L211.422 103.365C211.22 99.1855 210.878 87.6354 210.943 83.259C210.962 81.9956 211.024 80.6953 211.928 79.7967C212.797 78.9315 214.342 78.543 215.982 77.2966C216.173 77.1511 216.702 76.7391 216.623 76.3564C216.558 76.0401 216.138 76.032 216.073 75.7375C215.986 75.3426 216.672 75.0366 217.333 74.2469C217.799 73.69 218.016 73.1758 218.203 72.7335C218.259 72.6001 219.089 70.6013 218.546 70.2114Z" fill="#F2F2F2"/>
<path d="M225.342 77.9091L226.679 75.5426L226.911 75.4577C227.984 75.0654 228.79 74.5072 229.307 73.7981C229.39 73.6854 229.466 73.5684 229.544 73.4494C229.853 72.9775 230.237 72.3908 231.011 71.9432C231.444 71.6944 232.527 71.1776 233.151 71.7903C233.32 71.9533 233.4 72.1432 233.435 72.323C233.469 72.3091 233.504 72.2956 233.541 72.2808C234 72.1057 234.276 72.0881 234.541 72.0711C234.746 72.0579 234.956 72.0447 235.35 71.9367C235.522 71.8893 235.665 71.8412 235.785 71.8009C236.149 71.6795 236.603 71.5495 237.016 71.8569C237.447 72.2007 237.414 72.7387 237.392 73.0949C237.353 73.7303 237.251 74.1349 237.184 74.4032C237.159 74.5011 237.131 74.6115 237.13 74.6506C237.12 74.966 238.431 75.6138 238.923 75.8604C240.03 76.411 240.988 76.8874 240.889 77.7661C240.819 78.3949 240.205 78.849 239.014 79.1505C238.643 79.2442 238.301 79.2716 238.01 79.2771C238.099 79.4829 238.135 79.7266 238.029 79.9916C237.779 80.6186 236.939 80.8203 235.532 80.5935C235.181 80.5381 234.711 80.4617 234.168 80.1953C233.912 80.0696 233.7 79.9308 233.521 79.8091C233.444 79.9079 233.341 80.0006 233.197 80.069C232.775 80.2708 232.284 80.1563 231.743 79.7068C231.141 79.2213 230.713 78.7291 230.334 78.2956C230.004 77.9175 229.718 77.5929 229.436 77.4166C228.91 77.0966 228.238 77.2175 227.415 77.4086L225.342 77.9091Z" fill="#F2F2F2"/>
<path d="M235.901 65.6983L233.275 65.0037L233.134 64.8008C232.482 63.8617 231.738 63.2232 230.922 62.9021C230.792 62.851 230.66 62.8067 230.525 62.7613C229.99 62.5819 229.326 62.359 228.697 61.7232C228.347 61.3676 227.573 60.45 228.007 59.6907C228.121 59.4854 228.284 59.3598 228.449 59.2804C228.427 59.2509 228.405 59.2207 228.382 59.1884C228.096 58.7886 228.009 58.5261 227.925 58.2731C227.861 58.0788 227.794 57.8781 227.59 57.5246C227.501 57.3696 227.418 57.2437 227.349 57.1378C227.139 56.8164 226.898 56.4095 227.09 55.9314C227.313 55.4275 227.842 55.3233 228.192 55.254C228.816 55.1302 229.232 55.1261 229.509 55.1236C229.61 55.1229 229.724 55.1215 229.762 55.1133C230.069 55.0422 230.363 53.6092 230.476 53.0705C230.728 51.8589 230.945 50.8106 231.819 50.6832C232.445 50.5915 233.039 51.0705 233.633 52.1475C233.818 52.4829 233.931 52.8075 234.01 53.0872C234.186 52.9493 234.413 52.8524 234.696 52.8873C235.365 52.9708 235.773 53.7329 235.911 55.1528C235.946 55.5058 235.992 55.9803 235.872 56.5741C235.815 56.8537 235.735 57.0939 235.663 57.2982C235.778 57.3478 235.894 57.4242 235.996 57.5458C236.298 57.903 236.312 58.408 236.015 59.0455C235.698 59.751 235.331 60.2907 235.008 60.7671C234.727 61.1833 234.486 61.5423 234.387 61.8593C234.211 62.4502 234.498 63.0696 234.892 63.8184L235.901 65.6983Z" fill="#F2F2F2"/>
<path d="M239.426 58.4262L240.764 56.0597L240.996 55.9748C242.069 55.5825 242.874 55.0243 243.392 54.3152C243.474 54.2025 243.551 54.0855 243.629 53.9665C243.938 53.4946 244.322 52.9079 245.096 52.4603C245.528 52.2115 246.611 51.6947 247.235 52.3074C247.405 52.4704 247.484 52.6603 247.519 52.8401C247.554 52.8262 247.588 52.8127 247.626 52.7979C248.084 52.6228 248.36 52.6052 248.626 52.5882C248.83 52.575 249.041 52.5618 249.434 52.4537C249.607 52.4064 249.749 52.3583 249.869 52.318C250.233 52.1965 250.688 52.0666 251.101 52.374C251.531 52.7178 251.498 53.2557 251.476 53.6119C251.438 54.2474 251.336 54.652 251.268 54.9202C251.243 55.0182 251.216 55.1286 251.214 55.1677C251.205 55.4831 252.515 56.1309 253.007 56.3775C254.114 56.9281 255.072 57.4045 254.974 58.2832C254.904 58.912 254.29 59.3661 253.098 59.6676C252.727 59.7613 252.385 59.7887 252.095 59.7942C252.183 60 252.219 60.2436 252.114 60.5087C251.863 61.1357 251.023 61.3373 249.616 61.1106C249.266 61.0551 248.796 60.9788 248.252 60.7124C247.996 60.5867 247.785 60.4479 247.605 60.3262C247.528 60.425 247.425 60.5177 247.282 60.5861C246.86 60.7879 246.368 60.6734 245.827 60.2239C245.226 59.7384 244.797 59.2461 244.419 58.8126C244.088 58.4346 243.802 58.11 243.521 57.9337C242.994 57.6137 242.323 57.7346 241.499 57.9257L239.426 58.4262Z" fill="#F2F2F2"/>
<path d="M210.946 102.539L210.695 101.919L210.117 101.594C210.144 101.538 210.198 101.403 210.283 101.192C210.751 100.04 212.175 96.5336 214.958 91.402C216.901 87.82 219.095 84.2794 221.479 80.8769C223.867 77.469 225.872 75.0318 227.483 73.0727C228.698 71.5952 229.88 70.2066 231.033 68.8545C234.112 65.2415 237.019 61.8283 239.704 57.6623C240.303 56.7326 241.551 54.7968 241.896 52.0262C242.097 50.4192 241.966 48.7687 241.506 47.1215L242.792 46.7617C243.299 48.5812 243.443 50.4086 243.221 52.1929C242.838 55.2648 241.478 57.3742 240.825 58.3876C238.094 62.6271 235.158 66.0729 232.049 69.7206C230.901 71.0682 229.723 72.4504 228.513 73.922C226.917 75.8628 224.93 78.279 222.572 81.6431C220.216 85.0047 218.05 88.5021 216.131 92.0388C213.384 97.1058 211.981 100.56 211.52 101.695C211.274 102.301 211.222 102.428 210.946 102.539Z" fill="#F2F2F2"/>
<path d="M238.279 47.405C238.234 47.3729 238.19 47.3393 238.147 47.3033C237.262 46.5867 236.808 45.4174 236.797 43.828C236.793 43.0812 237.013 42.3918 237.452 41.0171C237.519 40.8049 237.873 39.7372 238.57 38.4209C239.025 37.5606 239.275 37.2439 239.638 37.0674C240.042 36.8703 240.482 36.8474 240.904 36.9226C240.965 36.8091 241.053 36.7103 241.177 36.634C241.688 36.3161 242.135 36.7301 242.379 36.9506C242.501 37.0647 242.653 37.2081 242.84 37.3293C243.134 37.5213 243.348 37.5473 243.671 37.5879C243.98 37.6266 244.364 37.6746 244.833 37.8867C245.759 38.3014 246.269 39.018 246.437 39.2541C247.324 40.4911 247.243 41.8187 247.149 43.3559C247.129 43.6637 247.029 44.7639 246.568 46.0372C246.236 46.9558 245.961 47.2718 245.713 47.476C245.207 47.8965 244.678 47.965 243.408 48.0404C242.081 48.1209 241.415 48.1605 240.905 48.1087C239.72 47.9865 238.976 47.9098 238.279 47.405Z" fill="#F2F2F2"/>
<path d="M68.4825 210.813C59.8938 212.898 50.9214 214 41.6932 214C31.6977 214 21.9993 212.708 12.767 210.272C11.7604 206.544 10.6177 202.415 9.32242 197.849C-2.29841 156.847 21.2444 127.778 21.2444 127.778L27.0527 123.191L79.3361 130.226C85.4208 159.915 81.4606 181.945 68.4825 210.813Z" fill="#2F2E41"/>
<path d="M59.966 49.4463L35.5071 46.9984L17.7744 62.2978L23.2777 117.375L20.8318 127.779L78.9216 130.227L75.8642 115.54L80.1445 61.6858L59.966 49.4463Z" fill="#7A8AF4"/>
<path d="M67.9149 78.2091H28.7808V139.407H67.9149V78.2091Z" fill="white"/>
<path d="M62.3309 86.2601H51.3962C51.1005 86.2601 50.8599 86.0193 50.8599 85.7233C50.8599 85.4273 51.1005 85.1865 51.3962 85.1865H62.3309C62.6267 85.1865 62.8673 85.4273 62.8673 85.7233C62.8673 86.0193 62.6267 86.2601 62.3309 86.2601Z" fill="#7A8AF4"/>
<path d="M62.3309 90.3888H51.3962C51.1005 90.3888 50.8599 90.148 50.8599 89.852C50.8599 89.556 51.1005 89.3152 51.3962 89.3152H62.3309C62.6267 89.3152 62.8673 89.556 62.8673 89.852C62.8673 90.148 62.6267 90.3888 62.3309 90.3888Z" fill="#7A8AF4"/>
<path d="M62.3309 94.5174H51.3962C51.1005 94.5174 50.8599 94.2766 50.8599 93.9806C50.8599 93.6847 51.1005 93.4438 51.3962 93.4438H62.3309C62.6267 93.4438 62.8673 93.6847 62.8673 93.9806C62.8673 94.2766 62.6267 94.5174 62.3309 94.5174Z" fill="#7A8AF4"/>
<path d="M61.8401 108.968H35.2505C34.5314 108.968 33.9463 108.382 33.9463 107.662C33.9463 106.943 34.5314 106.357 35.2505 106.357H61.8401C62.5593 106.357 63.1444 106.943 63.1444 107.662C63.1444 108.382 62.5593 108.968 61.8401 108.968Z" fill="#E6E6E6"/>
<path d="M46.8819 132.736C52.1723 134.396 57.3162 133.009 58.3709 129.639C59.4256 126.269 55.9919 122.193 50.6993 120.534C48.5942 119.842 46.3542 119.665 44.1666 120.017L21.6619 113.269L7.37939 123.495L41.2207 129.429C42.8167 130.968 44.758 132.102 46.8819 132.736Z" fill="#FFB6B6"/>
<path d="M20.0792 61.0739C20.0792 61.0739 11.8798 65.7631 9.53708 75.7277L0.166344 115.586C0.166344 115.586 -1.59067 121.448 6.31589 124.378C14.2225 127.309 23.886 114.707 23.886 114.707L19.4727 110.29L27.9857 73.09L20.0792 61.0739Z" fill="#7A8AF4"/>
<path d="M40.7818 126.845C35.2819 127.545 30.4629 125.273 30.0184 121.769C29.5738 118.266 33.6718 114.86 39.1738 114.161C41.3678 113.851 43.604 114.072 45.6952 114.804L69.0361 112.133L81.2935 124.719L46.937 124.589C45.0948 125.822 42.9842 126.596 40.7818 126.845Z" fill="#FFB6B6"/>
<path d="M79.7891 61.0347C79.7891 61.0347 87.034 67.0972 87.5846 77.3191L89.787 118.207C89.787 118.207 90.4839 124.286 82.1849 125.776C73.8859 127.266 66.5938 113.156 66.5938 113.156L71.716 109.587L69.8896 71.4674L79.7891 61.0347Z" fill="#7A8AF4"/>
<path d="M47.1249 82.4929H33.061V99.6282H47.1249V82.4929Z" fill="#7A8AF4"/>
<path d="M36.8154 95.2832L35.8493 99.5181L35.8249 99.6282H33.0732C33.4034 98.2329 33.8131 96.5071 34.0027 95.681C34.2411 94.6774 34.8649 94.0287 35.2623 93.7043C35.4641 93.5268 35.6108 93.4473 35.6108 93.4473L36.8154 95.2832Z" fill="#E6E6E6"/>
<path d="M46.1039 99.6282H43.4257L43.2056 95.0323L44.6731 93.484L44.7159 93.4412C44.7159 93.4412 45.8226 94.3652 45.9021 95.9258C45.9449 96.703 46.0306 98.2635 46.1039 99.6282Z" fill="#E6E6E6"/>
<path d="M188.739 108.783C164.364 108.783 144.533 88.9363 144.533 64.5405C144.533 40.1447 164.364 20.2975 188.739 20.2975C213.115 20.2975 232.946 40.1448 232.946 64.5405C232.946 88.9361 213.115 108.783 188.739 108.783ZM188.739 21.0411C164.773 21.0411 157.535 51.8996 145.276 64.5405C128.584 81.752 164.773 108.04 188.739 108.04C212.705 108.04 232.203 88.526 232.203 64.5405C232.203 40.5549 212.705 21.0411 188.739 21.0411Z" fill="#E6E6E6"/>
<path d="M191.272 74.3554C191.272 75.0404 190.717 75.5956 190.032 75.5956C189.348 75.5956 188.793 75.0404 188.793 74.3554V64.9467L185.953 67.7919C185.468 68.2768 184.682 68.2768 184.198 67.7919C183.713 67.3069 183.713 66.5206 184.198 66.0356L189.155 61.0746C189.638 60.5896 190.423 60.5886 190.907 61.0724L190.91 61.0746L195.867 66.0356C196.351 66.5206 196.351 67.3069 195.867 67.7919C195.382 68.2768 194.596 68.2768 194.112 67.7919L191.272 64.9467V74.3554Z" fill="#7A8AF4"/>
<path d="M204.903 80.5567V56.9916L193.75 45.8292H180.118C177.38 45.8292 175.161 48.0504 175.161 50.7903V80.5567C175.161 83.2966 177.38 85.5178 180.118 85.5178H199.946C202.684 85.5178 204.903 83.2966 204.903 80.5567ZM193.75 53.2708C193.75 55.3258 195.414 56.9916 197.468 56.9916H202.425V80.5567C202.425 81.9267 201.315 83.0372 199.946 83.0372H180.118C178.749 83.0372 177.64 81.9267 177.64 80.5567V50.7903C177.64 49.4203 178.749 48.3098 180.118 48.3098H193.75V53.2708Z" fill="#7A8AF4"/>
<path d="M42.6313 88.0013L37.8477 88.5652L38.3819 93.1051L43.1656 92.5412L42.6313 88.0013Z" fill="#2F2E41"/>
<path d="M40.1859 90.6184C41.483 90.6184 42.5344 89.5661 42.5344 88.2679C42.5344 86.9698 41.483 85.9175 40.1859 85.9175C38.8889 85.9175 37.8374 86.9698 37.8374 88.2679C37.8374 89.5661 38.8889 90.6184 40.1859 90.6184Z" fill="#FFB6B6"/>
<path d="M38.6377 84.6223C37.1742 85.029 37.3105 85.575 36.867 85.919C36.0858 86.5251 35.9263 88.0284 36.4841 88.9422C36.6331 89.1863 36.9248 89.509 36.8481 89.9035C36.7892 90.2064 36.5408 90.4103 36.494 90.4474C36.111 90.7513 36.3451 90.4159 36.1835 90.6514C36.0052 90.9113 36.3636 91.2066 36.2176 91.6516C36.0882 92.0462 35.727 92.0568 35.7083 92.2975C35.676 92.712 36.6896 93.4184 37.6588 93.2392C38.5217 93.0797 39.0811 92.2677 39.2159 91.5493C39.3062 91.068 39.2747 90.2622 38.8567 89.9178C38.798 89.8695 38.6398 89.7545 38.4782 89.544C38.3504 89.3774 38.182 89.1581 38.2452 88.9856C38.3126 88.8018 38.572 88.8638 38.711 88.6797C38.8994 88.4299 38.5995 88.0808 38.5944 87.6891C38.5857 87.0258 39.4206 86.1284 40.4184 86.1351C41.5503 86.1427 42.1024 87.3085 42.1603 87.4362C42.2804 87.7008 42.31 87.967 42.3691 88.4995C42.4539 89.2637 42.5071 89.7426 42.3256 90.2621C42.0647 91.0093 41.6173 90.9847 41.5544 91.5247C41.4564 92.3667 42.4677 93.0814 42.5832 93.1609C43.4388 93.7499 44.6342 93.8164 44.7955 93.4859C44.9409 93.1881 44.109 92.8496 44.0337 91.9856C43.9683 91.237 44.5448 90.9384 44.3537 90.4415C44.1433 89.8945 43.3899 90.1138 42.9902 89.5143C42.6171 88.9547 43.1367 88.5586 42.9026 87.3487C42.8531 87.0927 42.6849 86.3612 42.1213 85.6833C41.873 85.3846 41.6205 85.0809 41.1994 84.9551C40.7279 84.8142 39.4119 84.4072 38.6377 84.6223Z" fill="#2F2E41"/>
<path d="M37.8911 86.8026C38.0117 87.3066 38.8081 87.4667 39.1429 87.4919C39.2846 87.5026 39.7637 87.5387 40.2054 87.283C40.3686 87.1885 40.4233 87.114 40.5983 87.0693C40.8352 87.0089 40.9672 87.0862 41.36 87.1469C41.7968 87.2144 42.0152 87.2482 42.112 87.1419C42.2704 86.9683 42.0761 86.4843 41.8305 86.1709C41.3765 85.5913 40.6571 85.48 40.3216 85.4281C39.9382 85.3689 39.1603 85.2486 38.5168 85.7246C38.4307 85.7882 37.7685 86.2905 37.8911 86.8026Z" fill="#2F2E41"/>
<path d="M44.7708 93.5451L44.2878 99.6282H35.8556L35.8495 99.518L35.2624 93.7043L35.2563 93.6369L37.0418 92.1009L37.5921 91.6235L37.9652 91.3053L38.9252 91.4032L41.689 91.6786H41.6951L42.6246 92.2416L44.0126 93.0862L44.673 93.4839L44.7708 93.5451Z" fill="#E6E6E6"/>
</g>
<defs>
<clipPath id="clip0_386_1831">
<rect width="272" height="214" fill="white"/>
</clipPath>
</defs>
</svg>
