<svg width="335" height="240" viewBox="0 0 335 240" fill="none" xmlns="http://www.w3.org/2000/svg">
<g clip-path="url(#clip0_386_1368)">
<path d="M271.111 152.711C271.41 152.739 271.711 152.674 271.972 152.525C272.234 152.376 272.443 152.15 272.572 151.879C272.701 151.607 272.743 151.302 272.693 151.006C272.642 150.71 272.502 150.436 272.291 150.222C272.261 150.073 272.239 149.966 272.209 149.818C272.224 149.787 272.239 149.755 272.254 149.724C272.589 149.024 273.124 148.439 273.791 148.042C274.458 147.646 275.228 147.455 276.003 147.494C276.779 147.532 277.525 147.8 278.149 148.261C278.773 148.723 279.247 149.359 279.511 150.089C280.565 153.002 281.943 155.935 282.174 158.974C282.276 160.318 282.144 161.669 281.783 162.967C284.855 157.017 286.61 150.476 286.931 143.788C287.01 142.11 286.995 140.429 286.886 138.752C286.795 137.378 286.644 136.01 286.433 134.649C285.279 127.266 282.39 120.262 278.002 114.212C275.804 112.878 274.069 110.901 273.029 108.55C272.652 107.705 272.4 106.809 272.28 105.892C272.532 105.937 272.79 105.97 273.044 105.998C273.123 106.006 273.206 106.014 273.285 106.022L273.315 106.025C273.594 106.05 273.874 105.995 274.122 105.864C274.37 105.734 274.576 105.535 274.713 105.291C274.851 105.048 274.915 104.769 274.898 104.489C274.881 104.21 274.783 103.941 274.617 103.716C274.514 103.576 274.41 103.435 274.306 103.295C274.149 103.079 273.988 102.867 273.831 102.651C273.812 102.63 273.795 102.608 273.779 102.586C273.598 102.339 273.418 102.097 273.237 101.85C273.612 101.323 274.104 100.89 274.675 100.584C276.65 99.5484 279.266 100.451 280.574 102.254C281.886 104.057 282.035 106.508 281.45 108.658C280.888 110.484 280.019 112.201 278.881 113.735C278.979 113.874 279.082 114.008 279.18 114.146C280.971 116.685 282.51 119.392 283.773 122.231C283.579 119.108 284.13 115.983 285.38 113.114C286.635 110.445 288.858 108.251 290.83 105.985C293.2 103.262 297.732 104.709 297.959 108.311C297.961 108.346 297.963 108.38 297.965 108.415C297.681 108.558 297.403 108.712 297.129 108.874C296.786 109.081 296.513 109.387 296.347 109.752C296.18 110.116 296.128 110.522 296.196 110.917C296.265 111.312 296.451 111.677 296.73 111.964C297.01 112.252 297.369 112.448 297.762 112.527L297.803 112.535C297.658 113.528 297.437 114.508 297.144 115.467C296.298 118.143 294.908 120.615 293.061 122.729C291.214 124.843 288.95 126.553 286.412 127.751C286.245 127.827 286.083 127.903 285.916 127.975C287.131 132.003 287.816 136.172 287.955 140.377C288.029 142.857 287.902 145.34 287.576 147.8L287.593 147.713C288.254 144.991 289.835 142.581 292.069 140.89C295.384 138.417 299.941 137.661 303.484 135.714C303.861 135.496 304.292 135.39 304.727 135.409C305.162 135.428 305.583 135.572 305.939 135.822C306.296 136.072 306.573 136.419 306.739 136.822C306.904 137.224 306.951 137.666 306.874 138.094C306.868 138.125 306.862 138.155 306.856 138.186C306.333 138.371 305.821 138.589 305.325 138.837C305.041 138.981 304.762 139.134 304.489 139.296C304.146 139.503 303.873 139.809 303.707 140.174C303.54 140.538 303.488 140.944 303.556 141.339C303.624 141.734 303.811 142.099 304.09 142.386C304.369 142.674 304.729 142.87 305.122 142.949L305.162 142.957C305.191 142.963 305.216 142.968 305.245 142.974C304.27 145.027 302.949 146.898 301.339 148.503C299.353 150.444 296.99 151.96 294.397 152.956C291.803 153.953 289.034 154.409 286.258 154.297L286.254 154.297C285.348 157.535 284.108 160.669 282.554 163.65L270.919 163.109C270.883 162.978 270.852 162.843 270.82 162.712C271.894 162.829 272.978 162.815 274.049 162.67C273.235 161.571 272.421 160.463 271.607 159.364C271.589 159.344 271.572 159.322 271.556 159.299C271.143 158.737 270.726 158.179 270.314 157.616L270.313 157.616C270.367 155.953 270.635 154.305 271.111 152.711L271.111 152.711Z" fill="#F2F2F2"/>
<path d="M36.6761 52.1385C36.3789 52.1847 36.0747 52.1385 35.8047 52.0061C35.5346 51.8737 35.3119 51.6615 35.1665 51.3983C35.0212 51.1351 34.9603 50.8336 34.9921 50.5346C35.0239 50.2357 35.1469 49.9537 35.3443 49.727C35.3652 49.5769 35.3802 49.4691 35.401 49.319C35.3844 49.2886 35.3677 49.2583 35.351 49.228C34.9728 48.5503 34.4026 47.9994 33.7122 47.6445C33.0218 47.2896 32.2419 47.1466 31.4704 47.2333C30.6989 47.3201 29.9703 47.6329 29.3761 48.1323C28.7818 48.6316 28.3485 49.2954 28.1304 50.0402C27.2585 53.013 26.0643 56.0258 26.0212 59.0735C26.0027 60.4206 26.2182 61.7606 26.6579 63.0341C23.2247 57.2851 21.0682 50.8654 20.3346 44.2102C20.1523 42.54 20.0635 40.8609 20.0687 39.1808C20.0742 37.8033 20.1402 36.429 20.2668 35.058C20.9621 27.6178 23.413 20.4487 27.4183 14.1393C29.5294 12.6712 31.1396 10.5916 32.0318 8.18055C32.3558 7.31353 32.5525 6.40419 32.6158 5.48084C32.3662 5.54155 32.1112 5.59027 31.8598 5.63438C31.7814 5.64708 31.6988 5.66027 31.6204 5.673L31.5908 5.67757C31.3139 5.72031 31.0306 5.68213 30.7749 5.56763C30.5192 5.45314 30.3021 5.26721 30.1497 5.03224C29.9973 4.79726 29.916 4.52324 29.9158 4.24319C29.9155 3.96313 29.9962 3.68897 30.1482 3.45371C30.2429 3.30735 30.3377 3.16106 30.4325 3.01482C30.5759 2.78932 30.724 2.56753 30.8674 2.34206C30.8844 2.32028 30.9002 2.29752 30.9146 2.27393C31.0798 2.01669 31.2454 1.76362 31.4106 1.50638C31.0033 1.00359 30.4853 0.601644 29.897 0.331882C27.8618 -0.580238 25.3066 0.482558 24.1128 2.36285C22.9148 4.24355 22.9174 6.69903 23.6341 8.80816C24.3076 10.5959 25.2807 12.256 26.5115 13.7173C26.4222 13.8614 26.3283 14.0017 26.239 14.1458C24.6075 16.79 23.2393 19.5877 22.1538 22.4987C22.1543 19.3697 21.4117 16.2852 19.987 13.4991C18.5689 10.9123 16.2151 8.85977 14.1061 6.71952C11.5728 4.14875 7.13937 5.87294 7.13499 9.48142C7.13495 9.51636 7.135 9.55127 7.13514 9.58617C7.42745 9.71154 7.71498 9.84708 7.99773 9.99279C8.35318 10.1781 8.64436 10.4664 8.8331 10.8199C9.02184 11.1734 9.09934 11.5757 9.05546 11.974C9.01158 12.3723 8.84836 12.7481 8.58718 13.0521C8.326 13.3561 7.97904 13.5742 7.59177 13.6777L7.55211 13.6883C7.75819 14.6698 8.03861 15.6343 8.39095 16.5733C9.4008 19.192 10.9409 21.5739 12.9148 23.5697C14.8887 25.5655 17.2538 27.1321 19.8618 28.1714C20.0327 28.2368 20.1995 28.3026 20.3699 28.3639C19.4067 32.4595 18.9804 36.663 19.1017 40.8685C19.1811 43.3488 19.4611 45.8186 19.9389 48.2538L19.917 48.168C19.0883 45.4925 17.3613 43.1848 15.0276 41.6347C11.5657 39.3707 6.9713 38.8979 3.31461 37.1731C2.9248 36.9788 2.48756 36.9001 2.05445 36.9461C1.62134 36.9921 1.21043 37.161 0.870186 37.4328C0.529939 37.7046 0.274547 38.068 0.134133 38.4802C-0.0062804 38.8923 -0.0258616 39.336 0.0777017 39.7589C0.085618 39.7889 0.093617 39.8189 0.101693 39.8489C0.635413 40.0014 1.15911 40.187 1.66974 40.4046C1.96205 40.53 2.24958 40.6656 2.53232 40.8113C2.88778 40.9966 3.17895 41.2848 3.36769 41.6384C3.55643 41.9919 3.63394 42.3942 3.59006 42.7925C3.54617 43.1908 3.38295 43.5666 3.12177 43.8706C2.86059 44.1746 2.51363 44.3927 2.12636 44.4962L2.08668 44.5068C2.05808 44.5141 2.03362 44.521 2.00508 44.5283C3.10511 46.5176 4.5395 48.3027 6.2454 49.8056C8.34825 51.6207 10.7998 52.9873 13.4498 53.8216C16.0998 54.6559 18.8923 54.9404 21.6562 54.6576L21.6603 54.6572C22.7645 57.8324 24.1957 60.8844 25.931 63.7638L37.5104 62.5048C37.538 62.3717 37.5609 62.2349 37.5842 62.1022C36.5197 62.2861 35.4367 62.339 34.3594 62.2598C35.1039 61.1126 35.8474 59.9571 36.5918 58.8099C36.6089 58.7881 36.6246 58.7654 36.639 58.7418C37.0161 58.1551 37.3978 57.5721 37.7749 56.9854L37.7751 56.9847C37.6184 55.3289 37.2492 53.7003 36.6764 52.1388L36.6761 52.1385Z" fill="#F2F2F2"/>
<path d="M196.655 47.8491C197.228 48.0067 197.76 48.288 198.213 48.6732C198.665 49.0585 199.028 49.5382 199.275 50.0786C199.522 50.6191 199.647 51.2071 199.643 51.8013C199.638 52.3955 199.502 52.9814 199.247 53.5177L205.46 60.4235L202.183 65.2217L193.545 55.3462C192.672 54.8568 192.009 54.0643 191.682 53.1189C191.355 52.1735 191.385 51.1409 191.769 50.2168C192.152 49.2927 192.861 48.5412 193.762 48.1048C194.662 47.6684 195.692 47.5774 196.655 47.8491Z" fill="#A0616A"/>
<path d="M254.828 64.8062C254.268 63.8948 253.533 63.1029 252.666 62.4759C251.799 61.849 250.817 61.3993 249.775 61.1526C248.734 60.906 247.654 60.8672 246.598 61.0386C245.542 61.21 244.53 61.5881 243.62 62.1514L223.184 74.8032L201.14 56.0723L195.656 61.1768L220.008 92.7603L251.659 76.2666C250.92 76.6515 255.72 66.2584 254.828 64.8062Z" fill="#CCCCCC"/>
<path d="M214.344 106.874C214.346 116.963 212.36 126.954 208.498 136.275C204.637 145.597 198.976 154.066 191.839 161.2C184.702 168.334 176.23 173.993 166.905 177.853C157.58 181.713 147.585 183.698 137.492 183.696C95.0489 183.696 60.6407 149.301 60.6407 106.874C60.6333 98.6217 61.9568 90.4218 64.5601 82.5901C69.6712 67.2949 79.463 53.9929 92.5508 44.5649C105.639 35.1369 121.36 30.0602 137.492 30.0525C151.405 30.0477 165.058 33.8196 176.994 40.9657C188.93 48.1118 198.701 58.3638 205.263 70.6272C206.89 73.6529 208.309 76.7856 209.511 80.0038C209.677 80.4519 209.84 80.9 209.998 81.3524V81.3567C210.702 83.3455 211.323 85.3713 211.859 87.4341C213.514 93.7816 214.349 100.315 214.344 106.874Z" fill="#3F3D56"/>
<path d="M129.084 55.0435C125.63 53.1765 121.796 52.1227 117.873 51.9622C113.95 51.8018 110.042 52.539 106.447 54.1177C103.282 55.4946 99.9494 57.9646 98.8936 62.425C103.164 59.9057 108.692 63.8861 109.791 70.2714L109.534 70.3421C108.954 74.7648 110.249 79.5799 112.758 82.3223C113.087 79.4738 114.961 77.5351 116.804 76.324C118.647 75.113 120.686 74.2332 122.092 72.1516C123.76 69.6837 124.183 66.077 124.846 62.7868C125.508 59.4966 126.765 55.9603 129.084 55.0435Z" fill="white"/>
<path d="M105.18 92.6792C103.998 94.4546 102.418 95.5686 101.001 96.9556C99.5874 98.347 98.2424 100.225 97.9606 102.636C97.7813 104.181 98.0588 105.752 98.0204 107.314C97.982 108.876 97.4611 110.634 96.398 111.023C94.72 111.629 93.4392 108.513 91.7143 108.295C90.3438 108.125 89.1099 110.28 89.5069 112.149C89.904 114.019 91.7698 114.847 92.8415 113.626C93.8107 115.252 93.1275 118.201 91.6716 118.7C91.5179 119.725 91.3642 120.745 91.2148 121.769C87.5344 119.196 83.8157 116.579 80.6861 112.811C77.2055 108.655 75.0467 103.554 74.4867 98.1634C74.0811 93.8315 74.6831 88.8765 72.6936 85.5433C71.101 82.8759 68.3684 82.2869 65.9092 82.4534C65.4609 82.4832 65.0084 82.5345 64.5601 82.5899C66.0104 78.2357 67.8524 74.0217 70.0635 69.9997C70.5638 69.785 71.0288 69.4958 71.4425 69.1418C73.731 67.2 74.7472 63.2692 76.6044 60.5506C76.724 60.3756 76.8478 60.2049 76.9759 60.0385C78.8758 57.5588 81.4205 56.2827 83.8797 55.0962C89.3234 52.4544 94.925 49.7785 100.672 50.1455L99.0366 50.3034C97.1281 55.6468 95.2182 60.9902 93.3069 66.3336C93.0165 67.153 92.7233 67.9738 92.4274 68.7962C91.3429 71.8348 90.2243 75.0699 90.3908 78.4714C90.489 80.4858 91.1891 82.6369 92.5213 83.3283C93.7637 83.9684 95.1214 83.1832 96.3211 82.4064C96.8292 82.082 97.333 81.7577 97.8411 81.429C99.6642 80.2554 101.684 79.0518 103.609 79.8371C105.373 80.5541 106.675 82.9484 106.922 85.5305C107.149 88.0405 106.537 90.5548 105.18 92.6792Z" fill="white"/>
<path d="M116.024 129.16C110.699 125.883 105.375 122.606 100.05 119.329L100.14 119.096C96.8299 120.356 95.4554 126.239 96.0025 131.049C96.5496 135.86 98.4048 140.16 99.342 144.847C100.606 151.262 100.129 157.897 97.9606 164.065C104.962 156.212 111.158 147.677 116.456 138.589C117.196 137.443 117.76 136.193 118.129 134.88C118.468 133.484 118.416 131.805 117.738 130.685C117.302 130.042 116.713 129.518 116.024 129.16Z" fill="white"/>
<path d="M95.0092 69.5395C94.4438 70.8103 94.2263 72.5047 94.7393 73.8195C95.2633 75.1623 96.3711 75.7692 97.3909 76.2744L100.333 77.7322C101.312 78.2171 102.367 78.7069 103.365 78.3079C104.568 77.8267 105.402 75.9407 105.187 74.1899C104.957 72.3268 103.782 71.0452 102.695 69.9538C101.175 68.4266 99.6543 66.8993 98.1337 65.3721L97.2768 66.4213C96.3499 67.325 95.5832 68.3794 95.0092 69.5395Z" fill="white"/>
<path d="M198.573 89.4569C199.896 89.7685 201.22 90.08 202.543 90.3916C202.313 94.8601 200.097 98.9957 197.125 100.494C195.887 101.117 194.508 101.347 193.483 102.512C192.557 103.571 192.087 105.218 191.656 106.793C190.9 109.542 190.145 112.29 189.389 115.039C188.578 118 187.536 121.291 185.427 122.358C183.617 123.276 181.546 122.153 180.154 120.271C178.762 118.389 177.912 115.858 177.088 113.391C177.14 116.08 175.889 118.718 174.117 119.652C172.341 120.587 170.18 119.742 168.993 117.655C168.139 116.157 167.785 114.181 166.948 112.661C166.111 111.142 164.357 110.271 163.443 111.697C162.841 112.644 162.918 114.095 162.619 115.299C162.154 117.168 160.745 118.342 159.349 118.444C157.957 118.547 156.599 117.744 155.433 116.656C153.03 114.403 151.258 110.826 150.57 106.853C150.267 105.082 150.182 103.153 150.707 101.492C151.232 99.8322 152.5 98.5518 153.76 98.8676C154.588 97.1177 152.953 94.796 151.48 95.0009C150.002 95.2057 148.845 96.7891 147.633 98.0055C146.425 99.2218 144.734 100.105 143.517 98.8974C143.526 100.02 142.612 100.763 141.822 100.669C141.036 100.579 140.336 99.9474 139.615 99.4992C136.827 97.7622 133.287 98.9145 131.306 102.201C132.544 96.9342 134.359 90.8909 138.163 89.6532C139.717 89.1453 141.412 89.5636 142.881 88.6844C145.481 87.1266 146.006 81.2412 143.76 78.8128C144.046 81.1089 143.991 83.7891 142.778 85.3597C141.566 86.9303 139.021 85.906 139.175 83.5843C138.825 85.1847 137.083 85.428 136.28 84.1988C135.473 82.9697 135.542 80.9596 136.114 79.4914C136.686 78.0232 137.659 76.9691 138.603 75.9576C140.631 73.7852 142.689 71.5873 145.037 70.2215C147.39 68.8558 150.105 68.3949 152.462 69.7521C153.704 70.4691 154.797 71.6641 156.065 72.2957C157.333 72.9316 158.943 72.8506 159.784 71.3653C160.728 69.7094 160.284 67.2511 160.634 65.1812C161.261 61.5236 164.92 59.8122 166.948 62.2278C165.433 61.8394 163.866 63.6319 163.678 65.8043C163.486 67.9766 164.583 70.1703 166.052 70.8276C168.519 71.9202 170.936 69.1716 172.802 66.628C174.749 63.9648 176.698 61.3031 178.651 58.6428C178.963 58.1898 179.313 57.7643 179.697 57.371C180.309 56.7751 181.124 56.4339 181.978 56.4165C182.832 56.399 183.66 56.7067 184.295 57.2771C186.268 58.886 187.194 62.1852 188.813 64.4556C191.161 67.7547 194.675 68.5571 197.945 69.1972C200.383 69.671 202.822 70.1476 205.263 70.627C206.89 73.6527 208.309 76.7854 209.511 80.0036C205.378 81.7576 201.566 85.0397 198.573 89.4569Z" fill="white"/>
<path d="M206.454 140.808C204.625 144.521 202.497 148.079 200.092 151.448C198.555 150.791 196.903 151.964 195.464 153.065C193.961 154.218 192.155 155.34 190.614 154.29C189.039 153.215 188.531 150.206 189.03 147.82C189.53 145.439 190.776 143.544 191.985 141.743C193.265 139.831 194.636 137.846 196.416 137.104C198.201 136.361 200.494 137.411 201.015 139.946L202.278 139.903C201.57 138.93 201.941 136.916 202.893 136.562C203.99 136.148 204.943 137.654 205.592 138.986C205.882 139.587 206.176 140.194 206.454 140.808Z" fill="white"/>
<path d="M158.052 122.781C155.336 122.952 153.184 119.609 151.754 116.321C150.325 113.032 149.02 109.271 146.569 107.598C145.169 106.641 143.572 106.51 142.053 106.046C140.534 105.583 138.944 104.624 138.217 102.671L136.494 101.975C134.219 103.254 131.913 104.557 129.952 106.638C127.753 108.973 126.383 111.967 126.054 115.157C125.725 118.605 126.94 122.45 129.211 123.745C131.006 124.768 133.095 124.123 134.913 125.06C137.184 126.23 138.533 129.631 139.043 132.988C139.553 136.345 139.424 139.834 139.789 143.23C140.154 146.625 141.161 150.158 143.244 151.898C145.85 154.076 149.675 152.266 150.844 148.303C151.418 146.358 151.398 144.165 151.827 142.146C152.582 138.592 154.621 135.955 156.238 133.04C157.855 130.124 159.128 126.165 158.052 122.781Z" fill="white"/>
<path d="M131.21 87.8564C131.463 88.0895 131.7 88.3403 131.917 88.607C132.143 88.9953 132.258 89.4376 132.25 89.8864C132.242 90.3352 132.112 90.7734 131.874 91.1538C132.201 91.1351 132.521 91.0489 132.813 90.9004C133.105 90.752 133.363 90.5446 133.571 90.2914C134.067 89.727 134.503 89.1129 134.873 88.4588C135.15 88.0072 135.444 87.3966 135.256 86.8603C135.128 86.4942 134.825 86.338 134.612 86.0627C134.275 85.6263 134.191 84.9332 134.017 84.3342C133.64 83.0406 132.737 82.0894 131.757 81.9534L131.893 81.9794C131.483 82.1196 131.197 82.7696 131.288 83.3544C131.37 83.887 131.713 84.3291 131.679 84.8723C131.63 85.6533 130.849 86.0199 130.801 86.8011C130.793 87.1929 130.94 87.5721 131.21 87.8564Z" fill="white"/>
<path d="M126.556 74.5831C126.56 74.582 126.564 74.5818 126.568 74.5808C126.651 74.5046 126.729 74.4221 126.8 74.334L126.556 74.5831Z" fill="#E6E6E6"/>
<path d="M127.37 78.2495C127.971 77.8634 128.306 76.7957 128.108 75.9021C127.91 75.0139 127.212 74.4168 126.568 74.5808C126.381 74.7702 126.149 74.909 125.894 74.9841C125.638 75.0593 125.368 75.0683 125.108 75.0103C124.71 74.9078 124.273 74.6439 123.927 74.9438C123.73 75.1678 123.591 75.4378 123.525 75.729C123.397 76.1213 123.269 76.5136 123.142 76.9059C123.081 77.0464 123.065 77.2022 123.096 77.3519C123.121 77.412 123.16 77.4647 123.211 77.505C123.262 77.5454 123.322 77.572 123.386 77.5823C124.153 77.8084 124.92 78.0344 125.687 78.2605C126.246 78.4252 126.85 78.5839 127.37 78.2495Z" fill="white"/>
<path d="M185.283 128.866C184.929 128.286 184.574 127.705 184.22 127.125C183.871 126.453 183.395 125.855 182.818 125.366C182.691 125.259 182.544 125.179 182.386 125.131C182.227 125.082 182.061 125.065 181.896 125.082C181.731 125.098 181.572 125.148 181.426 125.227C181.281 125.306 181.153 125.413 181.049 125.543L181.093 125.874C181.901 126.888 182.756 128.014 182.961 129.518C183.042 130.111 183.014 130.725 183.085 131.321C183.155 131.917 183.357 132.534 183.742 132.791C184.3 133.164 184.956 132.614 185.353 131.943C185.708 131.392 185.868 130.738 185.805 130.085C185.717 129.647 185.539 129.232 185.283 128.866Z" fill="white"/>
<path d="M201.065 106.702C201.168 106.03 201.27 105.357 201.373 104.685C201.539 103.947 201.56 103.183 201.434 102.437C201.405 102.274 201.344 102.118 201.254 101.979C201.165 101.84 201.048 101.72 200.911 101.626C200.775 101.533 200.621 101.468 200.459 101.435C200.296 101.402 200.129 101.401 199.967 101.434L199.786 101.715C199.752 103.011 199.68 104.423 198.868 105.706C198.548 106.212 198.131 106.663 197.801 107.165C197.472 107.666 197.228 108.268 197.357 108.712C197.544 109.357 198.4 109.358 199.136 109.101C199.763 108.908 200.306 108.51 200.679 107.971C200.893 107.579 201.025 107.147 201.065 106.702Z" fill="#E6E6E6"/>
<path d="M190.846 129.621C191.019 129.123 190.769 128.552 190.716 128.001C190.691 127.29 190.879 126.587 191.258 125.985C191.633 125.416 191.918 124.792 192.101 124.136C192.179 123.836 192.164 123.521 192.061 123.23C191.943 122.966 191.659 122.846 191.496 123.055L191.845 123.28C191.374 123.196 190.89 123.219 190.429 123.348C190.166 123.449 189.931 123.611 189.744 123.822C189.557 124.032 189.424 124.285 189.355 124.558C189.298 124.983 189.204 125.403 189.074 125.813C188.866 126.24 188.463 126.383 188.21 126.758C188.037 127.091 187.95 127.461 187.956 127.836C187.962 128.211 188.062 128.579 188.245 128.905C188.563 129.44 189.069 129.838 189.664 130.02C190.09 130.173 190.651 130.181 190.846 129.621Z" fill="white"/>
<path d="M200.752 132.609C200.906 133.01 201.113 133.388 201.366 133.735C201.84 134.213 202.485 133.919 203.06 133.803C203.582 133.721 204.117 133.781 204.608 133.978C205.098 134.174 205.526 134.5 205.847 134.92C205.624 133.808 205.137 132.765 204.427 131.88C203.717 130.995 202.805 130.293 201.767 129.833C200.411 129.28 198.983 129.227 197.572 129.177L197.329 129.24C197.949 131.046 199.899 131.006 200.752 132.609Z" fill="white"/>
<path d="M158.795 136.304L158.799 136.312C158.823 136.266 158.846 136.221 158.87 136.175L158.795 136.304Z" fill="#E6E6E6"/>
<path d="M157.292 139.212C156.965 139.806 156.683 140.425 156.449 141.063C156.14 142.096 155.935 143.157 155.838 144.231C155.762 144.841 155.738 145.621 156.121 145.919C156.231 145.992 156.363 146.022 156.494 146.004C156.625 145.986 156.745 145.922 156.831 145.822C157.044 145.597 157.217 145.339 157.346 145.057C158.098 143.763 158.682 142.377 159.083 140.935C159.45 139.416 159.446 137.627 158.799 136.312C158.297 137.278 157.794 138.245 157.292 139.212Z" fill="white"/>
<path d="M142.794 61.7428C143.033 61.9761 143.335 62.1344 143.663 62.1983C143.99 62.2623 144.329 62.229 144.638 62.1026C145.278 61.823 145.865 61.4355 146.373 60.957C146.794 60.6457 147.151 60.2563 147.425 59.8101C147.576 59.5435 147.673 59.2497 147.709 58.9456C147.746 58.6415 147.723 58.3331 147.64 58.0382C147.403 57.3435 146.8 57.1107 146.268 56.953C145.416 56.7006 144.565 56.4482 143.713 56.1959L144.329 55.6409C143.696 55.3009 142.995 55.9319 142.598 56.7131C142.344 57.2231 142.167 57.768 142.073 58.3299C141.861 59.556 142.068 61.0161 142.794 61.7428Z" fill="#E6E6E6"/>
<path d="M157.827 56.698C158.067 56.9624 158.399 57.1257 158.755 57.1547C159.111 57.1836 159.465 57.0761 159.744 56.8539C159.985 56.6732 160.185 56.4439 160.331 56.1808C160.477 55.9178 160.566 55.6269 160.592 55.3272C160.653 54.6577 160.321 53.9136 159.848 53.8558L159.957 53.2289C159.046 53.0644 157.924 53.0315 157.436 54.1375C157.271 54.5612 157.221 55.0206 157.29 55.47C157.358 55.9193 157.544 56.3427 157.827 56.698Z" fill="#E6E6E6"/>
<path d="M155.819 23.3638C150.478 22.7615 145.116 24.305 140.913 27.6547C136.71 31.0043 134.01 35.8858 133.407 41.2252C132.153 52.344 138.013 76.4888 148.697 86.4837C153.727 67.3343 171.355 55.9759 173.688 45.7671C176.18 34.8587 166.942 24.618 155.819 23.3638Z" fill="#7A8AF4"/>
<path d="M152.125 48.0819C155.776 48.0819 158.735 45.1236 158.735 41.4744C158.735 37.8252 155.776 34.8669 152.125 34.8669C148.475 34.8669 145.515 37.8252 145.515 41.4744C145.515 45.1236 148.475 48.0819 152.125 48.0819Z" fill="white"/>
<path d="M145.175 96.0107C147.566 96.0107 149.505 94.0731 149.505 91.683C149.505 89.2928 147.566 87.3552 145.175 87.3552C142.784 87.3552 140.846 89.2928 140.846 91.683C140.846 94.0731 142.784 96.0107 145.175 96.0107Z" fill="#7A8AF4"/>
<path opacity="0.2" d="M157.594 36.7407C158.338 37.1876 158.987 37.7766 159.503 38.4741C160.019 39.1716 160.393 39.964 160.603 40.8059C160.813 41.6478 160.855 42.5228 160.727 43.381C160.599 44.2391 160.302 45.0636 159.855 45.8074C159.408 46.5511 158.819 47.1995 158.121 47.7156C157.423 48.2317 156.631 48.6054 155.789 48.8153C154.088 49.2392 152.288 48.9703 150.785 48.0677C152.317 48.4084 153.921 48.1929 155.308 47.4599C156.696 46.7268 157.777 45.524 158.359 44.0668C158.94 42.6096 158.984 40.993 158.482 39.5064C157.981 38.0199 156.966 36.7604 155.62 35.9534C156.316 36.1076 156.983 36.3735 157.594 36.7407Z" fill="#231F20"/>
<path opacity="0.2" d="M173.714 45.7884C171.381 55.9971 153.753 67.3555 148.723 86.505C147.718 85.5559 146.785 84.5339 145.931 83.4473C151.584 65.4474 168.114 54.51 170.368 44.6465C172.385 35.8185 166.719 27.4286 158.589 23.8845C168.431 26.3575 175.998 35.7918 173.714 45.7884Z" fill="#231F20"/>
<path d="M93.8764 49.145C89.8651 48.6927 85.8384 49.8518 82.682 52.3673C79.5257 54.8828 77.4982 58.5486 77.0458 62.5583C76.1035 70.9081 80.5042 89.04 88.5275 96.5459C92.3052 82.1653 105.543 73.6355 107.295 65.9691C109.167 57.7773 102.229 50.0869 93.8764 49.145Z" fill="#7A8AF4"/>
<path d="M91.1026 67.7077C93.8441 67.7077 96.0665 65.4861 96.0665 62.7457C96.0665 60.0053 93.8441 57.7837 91.1026 57.7837C88.3611 57.7837 86.1387 60.0053 86.1387 62.7457C86.1387 65.4861 88.3611 67.7077 91.1026 67.7077Z" fill="white"/>
<path d="M85.8831 103.7C87.6787 103.7 89.1343 102.245 89.1343 100.45C89.1343 98.6555 87.6787 97.2004 85.8831 97.2004C84.0875 97.2004 82.6318 98.6555 82.6318 100.45C82.6318 102.245 84.0875 103.7 85.8831 103.7Z" fill="#7A8AF4"/>
<path opacity="0.2" d="M95.2095 59.1906C95.7682 59.5262 96.2554 59.9686 96.6431 60.4924C97.0308 61.0162 97.3116 61.6112 97.4692 62.2434C97.6269 62.8757 97.6585 63.5328 97.5621 64.1772C97.4658 64.8217 97.2433 65.4408 96.9076 65.9994C96.5719 66.5579 96.1293 67.0449 95.6053 67.4324C95.0813 67.82 94.4861 68.1006 93.8536 68.2582C93.2211 68.4159 92.5637 68.4474 91.919 68.3511C91.2743 68.2548 90.6549 68.0324 90.0962 67.6968C91.2467 67.9527 92.4508 67.7908 93.4929 67.2403C94.535 66.6898 95.347 65.7866 95.7838 64.6923C96.2205 63.5979 96.2534 62.3839 95.8765 61.2676C95.4996 60.1513 94.7376 59.2054 93.7269 58.5994C94.2497 58.7152 94.7504 58.9149 95.2095 59.1906Z" fill="#231F20"/>
<path opacity="0.2" d="M107.315 65.9852C105.563 73.6516 92.3251 82.1814 88.5474 96.5619C87.7928 95.8493 87.092 95.0818 86.4507 94.2658C90.6958 80.7484 103.11 72.5348 104.802 65.1277C106.317 58.4981 102.062 52.1977 95.9568 49.5361C103.347 51.3932 109.03 58.4781 107.315 65.9852Z" fill="#231F20"/>
<path d="M249.286 228.895H243.836L241.243 207.881L249.287 207.881L249.286 228.895Z" fill="#A0616A"/>
<path d="M252.218 239.24H248.35L247.66 235.59L245.892 239.24H235.635C235.143 239.24 234.664 239.083 234.268 238.791C233.872 238.5 233.58 238.09 233.434 237.621C233.287 237.152 233.295 236.648 233.455 236.183C233.615 235.719 233.92 235.318 234.325 235.038L242.516 229.383V225.694L251.131 226.208L252.218 239.24Z" fill="#2F2E41"/>
<path d="M228.176 228.895H222.726L220.133 207.881L228.177 207.881L228.176 228.895Z" fill="#A0616A"/>
<path d="M231.108 239.24H227.241L226.55 235.59L224.782 239.24H214.525C214.033 239.24 213.555 239.083 213.159 238.791C212.763 238.5 212.47 238.09 212.324 237.621C212.177 237.152 212.185 236.648 212.345 236.183C212.506 235.719 212.81 235.318 213.215 235.038L221.406 229.383V225.694L230.022 226.208L231.108 239.24Z" fill="#2F2E41"/>
<path d="M207.47 173.413C208.513 174.977 219.86 217.968 219.86 217.968L229.92 219.115L228.726 208.298L226.901 189.156L224.075 176.38C224.075 176.38 234.056 153.672 234.687 151.863L235.135 150.565L238.254 178.856C238.624 179.866 238.786 180.94 238.728 182.015C238.635 183.782 240.408 210.368 240.408 210.368L241.26 219.902L249.88 221.099L253.377 204.602C256.298 199.243 254.623 180.201 253.429 178.428C252.235 176.656 252.71 164.312 252.71 164.312C254.235 163.775 263.328 132.778 258.78 132.961C259.072 131.309 259.301 129.833 259.301 129.833L251.406 123.468L231.647 118.334L226.662 115.941C226.662 115.941 217.758 132.398 217.847 133.217C217.969 134.253 217.732 135.3 217.174 136.183L208.185 166.256C208.185 166.256 206.417 171.834 207.47 173.413Z" fill="#2F2E41"/>
<path d="M257.112 65.8001L253.968 59.1287L243.27 59.5397L239.78 66.4803C239.78 66.4803 229.807 78.3877 229.484 82.2595C229.078 87.1291 232.452 110.995 229.078 109.448C229.078 109.448 221.123 118.782 225.83 118.782C230.537 118.782 251.829 132.142 253.226 133.645C254.623 135.147 260.86 136.122 260.337 132.985C259.814 129.848 257.112 112.884 257.112 112.884L264.427 86.2092C266.532 80.4502 267.187 73.9903 262.428 70.1218L257.112 65.8001Z" fill="#CCCCCC"/>
<path d="M217.483 46.1642C216.052 45.5964 214.523 45.3159 212.983 45.3387C211.444 45.3615 209.924 45.6872 208.51 46.2972C207.097 46.9072 205.817 47.7895 204.745 48.8938C203.672 49.9981 202.828 51.3028 202.26 52.7333C199.871 58.7493 199.475 73.116 203.921 80.3164C209.637 70.3907 221.202 66.7257 224.054 61.3812C227.102 55.6704 223.501 48.5523 217.483 46.1642Z" fill="#7A8AF4"/>
<path d="M212.67 59.5351C214.782 59.5351 216.494 57.8238 216.494 55.7128C216.494 53.6019 214.782 51.8906 212.67 51.8906C210.558 51.8906 208.846 53.6019 208.846 55.7128C208.846 57.8238 210.558 59.5351 212.67 59.5351Z" fill="white"/>
<path d="M201.165 85.1876C202.548 85.1876 203.67 84.0668 203.67 82.6841C203.67 81.3015 202.548 80.1807 201.165 80.1807C199.782 80.1807 198.661 81.3015 198.661 82.6841C198.661 84.0668 199.782 85.1876 201.165 85.1876Z" fill="#7A8AF4"/>
<path opacity="0.2" d="M216.441 53.9005C217.142 54.6325 217.523 55.6126 217.501 56.6254C217.479 57.6382 217.056 58.6008 216.324 59.3018C215.592 60.0028 214.612 60.3847 213.599 60.3637C212.586 60.3427 211.622 59.9205 210.92 59.1898C211.724 59.6125 212.652 59.7355 213.537 59.5369C214.423 59.3383 215.21 58.831 215.756 58.1059C216.302 57.3807 216.571 56.485 216.517 55.5791C216.463 54.6731 216.088 53.8161 215.459 53.1614C215.824 53.3531 216.156 53.6027 216.441 53.9005Z" fill="#231F20"/>
<path opacity="0.2" d="M224.065 61.397C221.213 66.7415 209.648 70.4066 203.932 80.3323C203.515 79.6501 203.149 78.938 202.837 78.2018C208.727 69.0122 219.615 65.4157 222.371 60.2519C224.838 55.6303 222.949 50.0873 218.949 46.8752C224.067 49.7491 226.858 56.1636 224.065 61.397Z" fill="#231F20"/>
<path d="M200.036 81.8222C200.619 81.7023 201.22 81.7114 201.798 81.8489C202.377 81.9864 202.918 82.249 203.383 82.6182C203.849 82.9873 204.228 83.4541 204.494 83.9856C204.76 84.5171 204.906 85.1004 204.922 85.6944L213.597 89.0229L212.859 94.7858L200.675 89.9133C199.674 89.8738 198.724 89.4691 198.002 88.7757C197.281 88.0823 196.839 87.1484 196.76 86.1511C196.682 85.1537 196.972 84.1622 197.575 83.3644C198.179 82.5665 199.055 82.0178 200.036 81.8222Z" fill="#A0616A"/>
<path d="M260.649 69.9463C259.735 69.3889 258.721 69.0173 257.663 68.8527C256.606 68.6881 255.527 68.7337 254.487 68.987C253.447 69.2404 252.468 69.6964 251.605 70.3289C250.742 70.9614 250.012 71.758 249.458 72.673L237.007 93.2266L208.855 86.5561L206.29 93.5946L242.342 110.665L260.6 81.5944C263.334 77.7542 264.673 72.4022 260.649 69.9463Z" fill="#CCCCCC"/>
<path d="M261.114 44.7573C261.114 46.7383 260.629 48.6892 259.699 50.4387C258.77 52.1882 257.425 53.6829 255.782 54.7915C254.14 55.9001 252.25 56.5887 250.279 56.7969C248.309 57.0052 246.317 56.7266 244.479 55.9858C242.641 55.2449 241.013 54.0643 239.738 52.5477C238.463 51.0311 237.58 49.2249 237.167 47.2875C236.753 45.3501 236.821 43.3409 237.366 41.4362C237.911 39.5314 238.915 37.7894 240.29 36.3631L240.348 36.3051C240.445 36.2034 240.542 36.1018 240.643 36.0049C240.644 36.0049 240.645 36.0048 240.645 36.0046C240.646 36.0043 240.646 36.004 240.647 36.0035C240.647 36.0031 240.648 36.0025 240.648 36.0019C240.648 36.0013 240.648 36.0007 240.648 36.0001C240.774 35.8839 240.9 35.7677 241.031 35.6564C242.78 34.1232 244.935 33.1265 247.236 32.7857C249.538 32.4448 251.889 32.7743 254.008 33.7345C256.127 34.6948 257.924 36.2452 259.184 38.2001C260.444 40.155 261.114 42.4316 261.114 44.7573Z" fill="#2F2E41"/>
<path d="M246.024 57.7057C251.631 57.7057 256.176 53.1621 256.176 47.5574C256.176 41.9527 251.631 37.4092 246.024 37.4092C240.417 37.4092 235.872 41.9527 235.872 47.5574C235.872 53.1621 240.417 57.7057 246.024 57.7057Z" fill="#9E616A"/>
<path d="M256.804 50.4514L255.122 50.1544C254.182 49.9837 253.317 49.5301 252.642 48.8544C251.967 48.1787 251.515 47.3131 251.345 46.3734L249.704 49.1231L249.632 49.1469C245.721 50.4447 241.653 50.0565 237.196 47.9617C235.922 47.3575 234.685 46.6762 233.494 45.9216L233.406 45.8667L233.399 45.7635C233.172 42.4622 233.913 39.7042 235.486 37.9975C236.09 37.3555 236.824 36.8482 237.637 36.5091C238.451 36.1699 239.328 36.0065 240.209 36.0296C240.272 36.0132 240.33 35.9814 240.377 35.937C240.4 35.9204 240.422 35.9039 240.445 35.8883V35.8712L240.561 35.8164C240.812 35.6987 241.067 35.5859 241.322 35.4829C243.331 34.7055 245.519 34.5105 247.634 34.9203C249.748 35.33 251.704 36.3279 253.277 37.7992C256.404 40.7835 257.839 45.7916 256.847 50.2618L256.804 50.4514Z" fill="#2F2E41"/>
<path d="M278.217 59.0978C274.763 57.3153 279.206 50.846 278.313 47.0636C277.42 43.2811 270.991 42.0646 270.581 38.1999C270.172 34.3352 269.208 30.3492 266.657 27.4167C265.027 25.5428 262.625 24.1594 260.151 24.3941C259.315 24.4736 258.505 24.7323 257.777 25.1528C257.049 25.5733 256.421 26.1456 255.934 26.8308C255.448 27.516 255.115 28.2979 254.958 29.1234C254.801 29.9488 254.824 30.7984 255.025 31.6142C254.321 30.6169 252.498 30.833 252.047 31.9675C251.646 32.976 252.532 34.1977 253.575 34.2869C254.939 35.971 256.501 37.7582 258.638 38.098C258.979 38.1761 259.333 38.1759 259.673 38.0974C260.014 38.0188 260.332 37.864 260.604 37.6446C261.106 37.1619 261.145 36.1969 260.549 35.8362C263.235 36.9027 264.81 39.8056 265.208 42.6669C265.607 45.5282 265.055 48.4233 264.692 51.2893C264.329 54.1553 264.172 57.1702 265.296 59.8317C266.624 62.9762 269.682 65.2299 273.02 65.9527C276.357 66.6755 279.911 65.9691 282.932 64.3776C285.953 62.786 288.472 60.3563 290.53 57.6324C286.985 60.1484 282.081 61.091 278.217 59.0978Z" fill="#2F2E41"/>
<path d="M256.373 50.1694C256.373 50.1694 253.365 38.9482 240.474 36.3583C240.459 36.3535 240.411 36.3341 240.348 36.3051C240.309 36.2809 240.261 36.2567 240.212 36.2325C240.358 36.1502 240.498 36.0776 240.643 36.0049L240.645 36.0046L240.647 36.0035L240.648 36.002L240.648 36.0001C240.774 35.8839 240.9 35.7677 241.031 35.6564L241.399 35.6709C241.399 35.6709 254.334 33.6232 256.373 50.1694Z" fill="#FD6584"/>
<path opacity="0.2" d="M249.639 86.1753L242.358 94.6075L230.328 91.0563L243.443 97.0979L249.639 86.1753Z" fill="black"/>
<path d="M293.342 239.875L181.398 240C181.27 240 181.147 239.949 181.057 239.858C180.967 239.767 180.916 239.645 180.916 239.517C180.916 239.389 180.967 239.266 181.057 239.176C181.147 239.085 181.27 239.034 181.398 239.034L293.342 238.909C293.47 238.909 293.593 238.96 293.684 239.05C293.774 239.141 293.825 239.264 293.825 239.392C293.825 239.52 293.774 239.643 293.684 239.734C293.593 239.824 293.47 239.875 293.342 239.875Z" fill="#CACACA"/>
<path d="M298.256 164.785C293.014 164.785 287.269 164.587 281.02 164.191C248.7 162.14 206.835 155.007 163.139 144.107C119.442 133.208 79.1329 119.843 49.6377 106.475C35.2697 99.9634 24.2423 93.7995 16.8623 88.1543C9.04872 82.178 5.63096 76.9687 6.70354 72.6717C8.79343 64.3004 27.2984 62.469 42.4541 62.4067L42.4593 63.6241C21.6464 63.7096 9.36788 67.0275 7.88536 72.9666C5.99689 80.5308 21.3984 92.3399 50.1406 105.366C79.571 118.704 119.806 132.044 163.433 142.926C207.061 153.808 248.848 160.929 281.097 162.976C312.591 164.976 331.738 161.784 333.626 154.22C335.194 147.939 324.858 138.688 304.523 128.168L305.083 127.087C319.859 134.731 337.01 145.694 334.808 154.515C333.735 158.812 328.27 161.805 318.564 163.411C313.031 164.326 306.234 164.785 298.256 164.785Z" fill="#7A8AF4"/>
</g>
<defs>
<clipPath id="clip0_386_1368">
<rect width="335" height="240" fill="white"/>
</clipPath>
</defs>
</svg>
